<?xml version="1.0" standalone="no"?>
<!DOCTYPE svg PUBLIC "-//W3C//DTD SVG 20010904//EN"
 "http://www.w3.org/TR/2001/REC-SVG-20010904/DTD/svg10.dtd">
<svg version="1.0" xmlns="http://www.w3.org/2000/svg"
 width="1087.000000pt" height="1280.000000pt" viewBox="0 0 1087.000000 1280.000000"
 preserveAspectRatio="xMidYMid meet">
<g transform="translate(0.000000,1280.000000) scale(0.100000,-0.100000)"
fill="#F7D970">
<path stroke-width="50" d="M6590 12797 c-3 -3 -43 -7 -90 -10 -47 -3 -107 -10 -135 -17 -155
-37 -211 -52 -239 -64 -17 -8 -48 -17 -69 -21 -47 -8 -248 -102 -308 -144 -24
-17 -67 -47 -95 -66 -73 -50 -304 -248 -304 -261 0 -4 -18 -24 -40 -46 -39
-39 -49 -58 -31 -58 12 0 74 51 133 110 55 56 161 144 236 198 26 19 54 40 63
48 8 8 22 14 29 14 7 0 21 6 29 14 29 26 255 143 311 161 30 10 73 26 95 35
22 10 56 18 76 18 20 0 47 6 60 13 46 26 276 35 584 25 182 -7 214 -12 480
-77 44 -11 87 -20 95 -21 24 -1 98 -27 123 -42 12 -8 49 -21 82 -30 33 -8 84
-27 112 -41 29 -14 56 -25 59 -25 4 0 27 -16 50 -36 24 -19 44 -30 44 -24 0
10 57 -23 70 -41 3 -3 15 -9 28 -13 12 -4 22 -12 22 -17 0 -5 4 -9 8 -9 17 0
177 -101 212 -133 49 -45 98 -78 128 -86 14 -4 28 -14 30 -22 4 -11 2 -12 -9
-1 -7 6 -17 12 -23 12 -17 0 56 -70 112 -107 28 -19 52 -39 52 -45 0 -5 -6 -6
-12 -2 -7 4 14 -22 48 -57 33 -35 71 -77 83 -94 13 -16 39 -48 59 -70 20 -22
36 -42 35 -45 -1 -3 10 -6 23 -6 32 -2 30 6 -7 42 -17 16 -40 42 -50 59 -36
57 -264 314 -280 314 -9 1 -33 18 -54 40 -21 21 -62 56 -92 77 -30 22 -76 56
-101 77 -26 20 -52 37 -58 37 -6 0 -21 11 -34 25 -13 14 -29 25 -35 25 -6 0
-21 14 -33 30 -13 17 -29 30 -37 30 -8 0 -15 4 -15 9 0 5 -26 19 -57 31 -32
13 -76 33 -98 46 -22 12 -58 27 -80 34 -22 7 -45 17 -51 21 -6 5 -35 17 -65
28 -30 10 -74 25 -99 34 -71 25 -151 47 -170 47 -10 0 -36 6 -58 14 -23 8 -94
24 -158 36 -94 17 -123 18 -151 9 -25 -8 -42 -8 -66 1 -33 11 -358 27 -367 17z"/>
<path  stroke-width="50" d="M6418 12579 c-9 -5 -34 -11 -55 -13 -21 -2 -53 -7 -70 -11 -22 -5
-33 -4 -33 4 0 16 -66 13 -80 -4 -7 -8 -28 -15 -46 -15 -19 0 -34 -4 -34 -10
0 -14 53 -13 68 2 8 8 76 11 229 10 265 -1 344 -4 448 -21 44 -7 91 -14 105
-16 58 -8 148 -24 190 -34 53 -12 228 -72 285 -96 22 -10 51 -19 65 -21 26 -2
174 -55 210 -74 12 -6 31 -13 42 -15 11 -3 43 -22 72 -43 28 -22 69 -46 91
-53 22 -8 55 -24 74 -36 19 -13 38 -23 44 -23 6 0 42 -21 79 -47 38 -27 77
-52 85 -58 36 -22 61 -44 154 -132 59 -57 105 -93 118 -93 12 0 21 -5 21 -11
0 -15 27 -48 120 -149 43 -47 90 -98 104 -115 15 -16 37 -41 49 -55 13 -14 45
-52 73 -85 27 -33 52 -61 56 -63 5 -2 8 -9 8 -16 0 -6 13 -27 30 -46 16 -19
29 -39 30 -43 0 -4 8 -20 19 -35 10 -15 27 -40 37 -56 10 -16 27 -41 36 -55
44 -67 117 -210 129 -251 7 -25 16 -49 20 -55 3 -5 10 -25 14 -42 9 -42 23
-51 31 -18 19 76 -146 409 -283 571 -24 28 -43 56 -43 61 0 6 -13 21 -28 34
-15 13 -33 37 -40 52 -6 15 -21 31 -31 35 -11 4 -31 27 -44 52 -13 25 -35 51
-50 58 -15 7 -27 20 -27 28 0 21 -41 74 -57 74 -7 0 -13 6 -13 13 0 6 -12 24
-28 39 -131 130 -200 200 -218 220 -25 28 -139 118 -149 118 -4 0 -26 15 -49
33 -42 34 -58 44 -158 94 -32 15 -58 31 -58 36 0 4 -6 7 -14 7 -8 0 -16 6 -18
12 -3 7 -11 13 -19 13 -8 1 -43 15 -79 31 -36 17 -83 37 -105 44 -22 7 -57 21
-78 32 -20 11 -60 21 -87 22 -28 1 -53 6 -57 11 -5 4 0 5 10 2 9 -4 17 -3 17
2 0 13 -49 31 -85 31 -41 0 -67 9 -59 21 3 5 -2 9 -10 9 -9 0 -50 12 -93 26
-43 14 -100 25 -126 25 -36 0 -47 4 -44 13 4 9 -4 13 -23 14 -15 0 -44 8 -64
16 -22 9 -49 13 -67 9 -19 -4 -34 -1 -38 6 -6 8 -17 7 -46 -4 -23 -10 -41 -13
-47 -7 -6 6 3 12 23 16 21 4 29 10 23 16 -6 6 -21 6 -42 -2 -26 -10 -34 -10
-41 0 -4 6 -26 14 -49 16 -36 4 -42 1 -42 -15 0 -22 -1 -23 -34 -8 -14 7 -23
16 -19 22 4 6 -11 8 -43 3 -27 -4 -53 -7 -59 -8 -5 -1 -32 2 -60 5 -28 4 -58
2 -67 -4z"/>
<path  stroke-width="50" d="M5998 12523 c-10 -2 -18 -8 -18 -13 0 -18 15 -17 34 1 19 19 17 21
-16 12z"/>
<path  stroke-width="50" d="M4890 12219 c-128 -35 -166 -46 -187 -58 -12 -6 -31 -11 -43 -11 -11
0 -23 -7 -26 -15 -4 -8 -17 -15 -31 -15 -26 0 -64 -17 -74 -33 -4 -5 -22 -11
-40 -12 -18 -2 -38 -9 -43 -17 -6 -8 -22 -18 -36 -21 -14 -4 -37 -18 -52 -32
-15 -14 -32 -25 -37 -25 -6 0 -19 -10 -31 -22 -11 -12 -20 -18 -20 -13 0 4 -8
1 -17 -7 -10 -9 -27 -18 -38 -22 -11 -3 -47 -31 -79 -61 -33 -30 -63 -55 -67
-55 -4 0 -9 -7 -13 -15 -3 -8 -12 -15 -20 -15 -9 0 -23 -12 -33 -27 -10 -16
-36 -45 -58 -65 -79 -74 -117 -113 -133 -140 -9 -16 -20 -28 -24 -28 -4 0 -8
-5 -8 -11 0 -6 -16 -29 -35 -50 -19 -22 -35 -42 -35 -47 0 -9 -101 -91 -115
-92 -5 -1 -17 -7 -25 -14 -8 -7 -23 -16 -32 -19 -10 -4 -18 -14 -18 -22 0 -9
-4 -13 -10 -10 -5 3 -10 -3 -10 -14 0 -11 -4 -23 -10 -26 -6 -4 -10 5 -10 19
0 14 -5 26 -11 26 -6 0 -8 -9 -4 -20 5 -15 2 -20 -14 -20 -25 0 -36 -17 -22
-34 14 -17 -11 -30 -27 -14 -7 7 -12 3 -17 -13 -5 -13 -16 -30 -26 -37 -10 -7
-28 -32 -40 -56 -14 -28 -27 -42 -35 -39 -8 3 -16 -3 -20 -13 -3 -11 -10 -27
-15 -36 -12 -23 -11 -31 2 -23 5 4 14 18 19 31 5 13 15 24 22 24 7 0 22 14 33
30 11 17 40 44 64 62 l45 32 -30 -45 c-35 -50 -90 -144 -117 -195 -9 -19 -27
-44 -38 -55 -11 -11 -18 -27 -15 -34 3 -8 -10 -33 -29 -56 -19 -22 -36 -46
-36 -52 -1 -7 -2 -18 -3 -25 0 -7 -6 -16 -11 -20 -16 -11 -45 -60 -45 -75 0
-7 -17 -31 -37 -53 -20 -21 -56 -63 -80 -92 -25 -29 -52 -62 -61 -72 -46 -53
-68 -82 -116 -160 -29 -47 -72 -123 -95 -170 -24 -47 -49 -96 -56 -110 -7 -14
-19 -44 -26 -67 -7 -24 -16 -43 -21 -43 -11 0 -27 -43 -33 -88 -2 -19 -11 -42
-19 -51 -23 -25 -58 -113 -58 -143 0 -15 -4 -30 -9 -34 -11 -7 -60 -112 -56
-122 1 -4 -9 -28 -22 -55 -19 -40 -45 -116 -55 -164 -1 -7 -6 -16 -10 -20 -12
-12 -36 -74 -36 -93 0 -10 -7 -20 -15 -24 -8 -3 -15 -14 -15 -25 0 -10 -15
-41 -34 -69 -18 -27 -44 -72 -57 -98 -25 -53 -78 -135 -94 -146 -5 -4 -10 -12
-10 -18 0 -11 -34 -55 -88 -114 -61 -65 -67 -72 -67 -81 0 -11 -106 -122 -150
-158 -19 -16 -35 -33 -35 -37 0 -5 -29 -38 -65 -73 -36 -35 -83 -87 -105 -116
-22 -29 -59 -73 -83 -96 -54 -55 -89 -106 -100 -147 -4 -17 -14 -34 -22 -36
-12 -4 -13 -2 -2 9 6 7 12 17 12 23 0 24 -65 -55 -97 -118 -23 -47 -37 -65
-43 -56 -5 9 -13 3 -24 -21 -9 -19 -33 -57 -54 -85 -62 -81 -112 -173 -112
-205 0 -26 -3 -30 -23 -27 -14 2 -21 -2 -19 -11 1 -7 -2 -18 -7 -25 -26 -32
-81 -150 -81 -175 0 -16 -7 -36 -15 -45 -10 -9 -15 -34 -15 -68 0 -29 -5 -60
-10 -68 -7 -11 -10 -2 -10 33 0 47 -13 57 -23 17 -3 -12 -1 -18 5 -14 19 12
-2 -70 -23 -89 -10 -10 -19 -25 -19 -35 0 -9 -7 -29 -14 -44 -13 -24 -13 -28
-1 -28 23 0 27 -18 9 -51 -11 -23 -18 -28 -24 -19 -5 8 -13 -6 -23 -41 -9 -29
-14 -56 -11 -60 2 -4 -11 -50 -31 -101 -19 -51 -35 -109 -35 -128 0 -19 -6
-55 -14 -80 -8 -25 -18 -63 -23 -85 -5 -22 -14 -39 -20 -38 -16 3 -34 -51 -39
-116 -2 -30 -11 -65 -20 -78 -8 -13 -12 -28 -8 -34 9 -15 41 59 42 99 0 19 12
55 25 80 14 26 37 92 52 146 28 104 35 125 91 266 18 47 47 135 63 195 36 136
110 349 122 353 5 2 9 12 9 23 0 26 55 149 120 266 37 65 180 263 243 336 27
31 50 63 51 71 1 9 13 28 26 43 14 16 46 55 71 88 92 118 196 228 237 250 15
8 48 38 74 67 25 29 70 80 100 114 29 33 73 84 98 113 25 30 64 74 87 100 24
25 43 49 43 52 0 3 16 26 35 50 19 24 35 49 35 54 0 6 16 33 36 60 60 83 146
266 140 297 -3 15 -1 30 4 33 6 4 19 23 29 44 23 44 122 299 125 321 1 8 6 24
10 35 4 11 11 29 16 40 4 11 15 37 24 58 9 21 16 43 16 50 0 24 115 284 147
332 18 27 33 54 33 59 0 12 203 313 240 356 l30 35 -6 -35 c-4 -19 -11 -36
-16 -38 -4 -2 -8 -16 -8 -31 0 -15 -5 -32 -11 -38 -10 -10 -22 -79 -36 -209
-7 -67 -7 -90 -3 -241 1 -39 -1 -76 -5 -82 -3 -6 -2 -11 4 -11 6 0 10 -19 10
-42 -1 -24 6 -74 15 -111 9 -38 16 -82 16 -98 0 -17 8 -47 19 -68 10 -21 15
-45 11 -52 -4 -8 -2 -36 6 -64 16 -62 17 -78 3 -69 -8 4 -9 -1 -4 -17 14 -41
21 -209 10 -213 -5 -3 -2 -5 8 -5 22 -1 23 -21 1 -21 -11 0 -14 -4 -8 -12 11
-15 11 -68 1 -85 -4 -6 -2 -24 3 -38 6 -15 8 -36 5 -46 -4 -10 1 -29 9 -41 9
-12 16 -32 16 -43 -1 -16 -5 -13 -18 13 -18 34 -32 33 -32 0 0 -12 4 -16 11
-12 8 5 10 -3 6 -27 -15 -79 -15 -98 -2 -93 7 3 16 1 19 -4 9 -15 -4 -42 -20
-42 -11 0 -14 -14 -13 -62 4 -117 -9 -259 -24 -276 -7 -9 -20 -33 -27 -52 -15
-38 -49 -93 -62 -98 -4 -2 -8 -12 -8 -21 0 -10 -11 -30 -25 -45 -14 -15 -25
-36 -25 -46 0 -11 -11 -27 -25 -36 -22 -14 -35 -37 -41 -71 -1 -7 -14 -23 -29
-35 -14 -13 -27 -30 -28 -39 -2 -8 -13 -28 -25 -43 -12 -16 -22 -38 -22 -50 0
-12 -9 -38 -20 -59 -11 -20 -19 -40 -18 -44 1 -9 -6 -32 -27 -80 -21 -48 -47
-207 -47 -293 -1 -47 12 -265 17 -290 8 -49 53 -198 66 -221 7 -13 12 -34 10
-47 -1 -13 9 -38 24 -57 14 -19 25 -41 23 -48 -6 -24 57 -162 87 -189 17 -16
18 -20 5 -28 -10 -7 -11 -10 -2 -10 6 0 12 -6 12 -14 0 -8 4 -16 10 -18 5 -1
11 -13 13 -25 2 -13 15 -36 30 -51 15 -16 25 -31 21 -34 -3 -4 8 -14 25 -23
17 -8 31 -20 31 -26 0 -7 -10 -5 -25 5 -24 16 -25 15 -25 -3 0 -11 5 -23 12
-27 7 -4 8 -3 4 4 -4 7 -3 12 2 12 12 0 33 -26 30 -36 -1 -5 4 -23 12 -41 11
-23 18 -29 27 -22 19 16 35 0 28 -29 -4 -21 0 -31 20 -46 14 -11 38 -41 53
-68 15 -26 33 -48 40 -48 7 0 22 -15 33 -34 11 -19 27 -37 35 -40 8 -3 14 -14
13 -23 -5 -30 9 -58 33 -68 13 -6 27 -20 33 -32 5 -13 13 -23 17 -23 17 0 6
22 -27 57 -19 20 -32 40 -30 44 3 4 -14 33 -38 65 -59 82 -78 112 -103 164
-12 25 -39 65 -61 89 -36 41 -47 59 -98 157 -11 22 -22 41 -26 44 -9 8 -74
112 -74 119 -1 3 -7 17 -15 31 -20 35 -49 113 -74 198 -17 59 -25 74 -44 79
-13 3 -20 8 -15 12 13 9 14 30 4 50 -22 40 -50 171 -49 227 0 32 -3 93 -8 134
-15 124 10 320 56 448 7 18 9 44 6 57 -4 14 -3 25 1 25 5 0 14 15 22 33 8 17
39 75 69 127 31 52 62 109 71 125 8 17 32 57 53 89 21 33 38 64 38 70 0 6 10
17 23 25 19 12 20 12 10 0 -7 -8 -8 -20 -4 -28 6 -9 11 -5 16 16 5 15 7 34 6
41 -1 6 11 31 27 55 41 61 110 201 142 287 31 85 40 181 16 161 -8 -7 -20 -35
-27 -64 -22 -92 -99 -260 -113 -246 -2 2 4 47 15 99 16 76 35 357 30 435 0 6
-3 125 -7 265 -4 140 -10 258 -15 261 -5 3 -11 18 -13 35 -2 16 -12 70 -21
119 -18 95 -21 138 -12 193 2 19 1 51 -4 72 -11 50 -14 204 -5 305 7 79 25
161 51 240 8 25 10 48 4 62 -5 13 -4 25 2 28 5 4 25 37 43 73 25 49 48 77 85
106 28 21 56 46 62 55 8 13 9 11 5 -9 -13 -66 -24 -95 -34 -93 -14 3 -26 -34
-23 -69 1 -14 -3 -29 -9 -33 -5 -3 -7 -11 -4 -17 9 -15 24 11 24 44 0 15 7 34
15 42 9 9 24 40 35 70 23 67 37 95 63 124 11 12 17 22 13 22 -3 0 1 14 10 31
9 17 22 53 30 80 8 26 19 51 24 54 6 4 18 23 29 43 19 38 77 147 102 192 40
72 165 220 185 220 7 0 36 12 66 28 86 44 117 54 141 48 12 -3 49 3 82 14 77
24 169 40 228 40 33 0 49 5 53 15 4 9 15 12 32 9 15 -3 83 4 152 16 69 12 148
23 175 26 47 4 181 32 269 55 34 9 37 12 24 26 -14 13 -26 13 -109 -2 -85 -15
-156 -30 -244 -51 -16 -4 -38 -6 -47 -5 -10 1 -18 -2 -18 -7 0 -5 -11 -7 -25
-4 -14 2 -31 -1 -39 -7 -10 -9 -16 -9 -21 -1 -6 10 -74 8 -93 -4 -5 -3 -48 -8
-96 -10 -47 -3 -91 -8 -96 -11 -6 -4 -31 -8 -56 -10 -26 -3 -52 -9 -58 -14 -7
-6 -35 -12 -64 -15 -28 -3 -69 -14 -91 -26 -22 -11 -48 -20 -57 -20 -10 0 -25
-7 -35 -16 -16 -15 -39 -12 -39 4 0 15 96 123 125 141 17 10 53 45 80 78 28
33 68 74 90 91 22 17 58 48 80 68 22 21 71 58 109 82 38 25 71 53 73 62 3 10
15 21 27 24 12 3 62 27 112 54 50 27 101 53 115 57 13 4 30 13 38 19 39 31
225 83 376 104 28 4 107 6 178 5 127 -1 154 6 100 29 -48 19 -298 17 -373 -3z
m-1415 -1049 c-3 -5 -12 -10 -18 -10 -7 0 -6 4 3 10 19 12 23 12 15 0z m58
-27 c-5 -33 -16 -42 -28 -23 -5 8 24 65 30 58 2 -2 0 -18 -2 -35z m-50 -60
c-10 -16 -23 -34 -30 -41 -7 -7 -13 -25 -13 -38 0 -16 -4 -23 -11 -18 -9 5
-10 -3 -5 -29 4 -21 2 -38 -4 -42 -6 -4 -10 5 -10 20 0 17 -5 25 -12 22 -7 -2
-12 -16 -10 -31 1 -14 -2 -26 -7 -26 -6 0 -17 -13 -25 -29 -14 -26 -14 -30 -1
-35 23 -8 18 -25 -9 -32 -18 -4 -27 -15 -31 -37 -12 -59 -16 -64 -71 -106 -30
-22 -57 -41 -59 -41 -3 0 9 23 25 50 17 28 30 54 30 59 0 10 82 156 110 196
72 103 135 185 142 185 5 0 1 -12 -9 -27z"/>
<path  stroke-width="50" d="M8812 11693 c-11 -4 -10 -8 2 -22 48 -51 56 -62 56 -71 0 -5 5 -10
10 -10 6 0 10 -7 10 -15 0 -9 20 -37 44 -63 24 -26 42 -51 40 -57 -2 -5 14
-22 36 -37 21 -15 44 -37 51 -50 l12 -23 -24 20 c-57 49 -60 50 -48 17 6 -17
18 -37 27 -44 15 -12 16 -11 3 5 -8 9 -12 20 -9 23 3 2 17 -11 31 -29 14 -19
24 -37 21 -40 -3 -3 8 -29 24 -59 24 -46 30 -52 42 -40 11 12 15 11 26 -9 17
-31 18 -63 2 -53 -7 5 -5 -3 5 -16 9 -14 22 -35 27 -48 5 -12 16 -25 24 -28 8
-3 31 -44 52 -92 22 -48 48 -95 60 -104 12 -10 27 -32 34 -50 7 -18 26 -54 43
-81 16 -27 27 -54 23 -63 -7 -17 28 -104 41 -104 13 0 43 -55 43 -78 0 -11 6
-22 14 -25 13 -5 13 -1 1 33 -8 22 -23 52 -34 67 -11 15 -25 47 -31 71 -6 24
-39 98 -73 165 -35 67 -85 171 -112 231 -28 61 -73 143 -102 183 -29 40 -63
94 -77 120 -13 27 -45 79 -70 116 -25 38 -46 75 -46 83 0 8 -6 14 -12 14 -7 0
-24 17 -37 38 -28 43 -104 132 -111 131 -3 0 -11 -3 -18 -6z"/>
<path  stroke-width="50" d="M6403 11303 c-29 -2 -53 -9 -53 -15 0 -7 -4 -7 -12 -1 -11 8 -68 11
-75 3 -2 -1 -7 -3 -13 -4 -5 0 -16 -10 -24 -21 -18 -23 -21 -13 -6 16 6 11 7
19 1 19 -5 0 -12 -8 -15 -17 -5 -12 -10 -13 -18 -5 -15 15 -38 3 -38 -22 -1
-20 -1 -21 -15 -2 -14 18 -16 18 -33 3 -10 -9 -31 -17 -45 -17 -15 0 -27 -4
-27 -9 0 -15 -63 -43 -70 -31 -4 6 -20 -2 -39 -19 -26 -23 -29 -29 -12 -24 12
3 21 10 21 15 0 5 8 8 18 7 9 -1 41 5 71 14 30 9 65 17 79 17 13 0 36 6 50 14
15 8 61 20 102 26 41 6 88 13 103 15 15 2 57 1 93 -4 61 -7 66 -6 74 13 9 25
-7 38 -31 25 -23 -12 -32 -12 -24 1 3 6 3 9 -2 8 -4 -1 -32 -3 -60 -5z"/>
<path  stroke-width="50" d="M6543 11293 c-7 -3 -13 -11 -13 -19 0 -10 15 -14 58 -14 36 0 66 -6
78 -15 10 -8 31 -15 46 -15 41 0 186 -49 231 -77 21 -13 43 -23 48 -21 16 5
219 -181 219 -200 0 -5 14 -36 30 -71 17 -34 35 -83 41 -109 17 -72 25 -100
58 -191 17 -47 33 -99 35 -115 4 -30 18 -79 36 -121 14 -34 32 -109 31 -132 0
-12 4 -25 9 -28 6 -3 10 -24 10 -46 0 -21 5 -39 11 -39 5 0 9 -8 8 -17 -4 -28
11 -105 26 -138 16 -35 27 -66 30 -80 0 -5 6 -23 13 -38 7 -16 12 -30 12 -33
0 -5 52 -87 60 -94 4 -3 12 -21 20 -40 7 -19 25 -51 40 -70 14 -19 39 -54 54
-77 16 -24 33 -43 37 -43 5 0 9 -7 9 -15 0 -8 9 -19 20 -25 11 -6 20 -16 20
-22 0 -7 41 -52 90 -100 50 -49 90 -95 90 -103 0 -8 4 -14 8 -13 5 2 51 -41
103 -94 144 -148 164 -171 177 -204 8 -17 29 -46 48 -65 34 -33 42 -49 24 -49
-5 0 -10 7 -10 16 0 24 -25 11 -28 -15 -2 -13 3 -44 12 -69 8 -26 17 -58 19
-72 3 -14 14 -49 26 -77 11 -29 18 -53 15 -53 -4 0 -1 -7 6 -15 6 -8 9 -19 6
-24 -4 -5 -2 -12 4 -16 5 -3 7 -17 4 -30 -3 -12 -2 -25 3 -28 7 -4 10 -412 3
-412 -2 0 -9 -55 -13 -116 -3 -31 -8 -62 -12 -68 -4 -7 -4 -24 -1 -37 4 -15 3
-23 -2 -20 -10 6 -23 -40 -24 -86 -1 -15 -5 -25 -9 -22 -5 3 -9 -4 -9 -15 0
-11 -4 -22 -9 -25 -9 -6 -7 -38 4 -71 6 -17 4 -16 -13 4 -11 14 -22 20 -26 13
-3 -6 0 -12 6 -15 10 -4 11 -7 1 -18 -18 -18 -16 -39 3 -39 8 0 12 -5 9 -11
-4 -6 -14 -8 -22 -5 -10 4 -14 0 -12 -17 2 -12 -1 -33 -6 -47 -5 -14 -9 -41
-9 -60 -1 -24 -6 -35 -16 -35 -10 0 -15 -10 -15 -32 0 -18 5 -31 10 -29 6 2 9
9 7 16 -2 7 3 20 11 29 7 9 19 34 25 57 7 22 20 49 31 58 13 12 18 26 15 45
-5 28 18 86 29 74 9 -9 27 43 27 78 0 16 7 40 14 52 8 12 20 54 26 92 6 39 22
117 36 173 16 71 24 134 25 200 1 249 -1 306 -10 335 -6 18 -13 50 -15 72 -8
60 -40 183 -65 245 -26 68 -26 73 -1 60 11 -6 20 -16 20 -22 0 -6 8 -20 18
-31 12 -15 14 -21 5 -24 -19 -7 -16 -17 12 -47 14 -15 23 -32 20 -37 -4 -5 -1
-9 4 -9 17 0 13 37 -4 44 -8 3 -15 17 -15 31 0 35 -105 230 -138 256 -15 11
-31 29 -37 39 -12 22 -70 84 -114 123 -25 22 -35 26 -46 17 -9 -8 -15 -8 -20
0 -3 5 1 10 9 10 21 0 20 14 -1 31 -9 8 -43 46 -77 84 -33 39 -63 70 -68 70
-15 0 -148 135 -148 151 0 8 -24 40 -54 71 -48 48 -80 98 -148 226 -18 34 -78
315 -78 365 0 17 -4 33 -9 36 -4 3 -11 34 -15 68 -4 35 -12 78 -17 96 -6 18
-12 52 -13 75 -3 44 -32 201 -43 227 -3 8 -7 20 -8 25 0 6 -4 17 -8 25 -3 8
-18 46 -32 84 -45 123 -113 219 -177 252 -41 21 -34 1 20 -59 65 -72 127 -199
147 -302 2 -11 17 -70 34 -131 17 -60 32 -126 35 -145 2 -19 9 -45 14 -60 6
-14 8 -37 5 -51 -3 -15 2 -36 11 -50 13 -19 14 -34 8 -64 l-9 -39 -12 57 c-7
32 -16 60 -21 63 -5 3 -7 11 -5 18 6 14 -20 140 -38 187 -3 8 -18 51 -33 95
-15 44 -31 85 -35 90 -4 6 -12 38 -19 72 -6 34 -17 83 -25 108 -14 47 -81 155
-97 155 -4 0 -8 7 -8 15 0 7 -6 18 -12 22 -7 4 -18 17 -24 28 -6 11 -17 20
-25 20 -8 0 -14 5 -14 11 0 17 -46 60 -72 68 -13 4 -23 12 -23 17 0 5 -7 9
-15 9 -8 0 -15 5 -15 10 0 6 -5 10 -12 10 -6 0 -19 6 -27 13 -19 17 -132 57
-171 62 -16 2 -48 9 -72 16 -45 12 -154 20 -175 12z m987 -1224 c0 -5 -4 -9
-10 -9 -5 0 -10 7 -10 16 0 8 5 12 10 9 6 -3 10 -10 10 -16z m620 -964 c7 -9
8 -15 2 -15 -5 0 -12 7 -16 15 -3 8 -4 15 -2 15 2 0 9 -7 16 -15z m60 -55 c0
-5 -4 -10 -10 -10 -5 0 -10 5 -10 10 0 6 5 10 10 10 6 0 10 -4 10 -10z m55
-30 c4 -7 -3 -8 -22 -4 -38 9 -42 14 -10 14 14 0 29 -5 32 -10z m-5 -30 c0 -5
-2 -10 -4 -10 -3 0 -8 5 -11 10 -3 6 -1 10 4 10 6 0 11 -4 11 -10z m60 -54 c0
-8 -4 -17 -9 -20 -10 -7 -23 19 -14 28 11 11 23 6 23 -8z m-10 -46 c0 -5 -2
-10 -4 -10 -3 0 -8 5 -11 10 -3 6 -1 10 4 10 6 0 11 -4 11 -10z m54 -26 c3 -8
2 -12 -4 -9 -6 3 -10 10 -10 16 0 14 7 11 14 -7z m19 -156 c8 -18 22 -60 32
-93 10 -33 24 -69 31 -80 19 -27 18 -35 -8 -35 -16 0 -19 3 -11 11 8 8 8 17 2
28 -8 14 -69 189 -69 198 0 12 11 -2 23 -29z m67 -228 c0 -5 -2 -10 -4 -10 -3
0 -8 5 -11 10 -3 6 -1 10 4 10 6 0 11 -4 11 -10z m40 -255 c0 -17 -2 -17 -10
-5 -5 8 -10 24 -10 35 0 17 2 17 10 5 5 -8 10 -24 10 -35z m-70 -550 c0 -8 -4
-15 -10 -15 -5 0 -7 7 -4 15 4 8 8 15 10 15 2 0 4 -7 4 -15z m-39 -142 c-8
-15 -10 -15 -11 -2 0 17 10 32 18 25 2 -3 -1 -13 -7 -23z"/>
<path  stroke-width="50" d="M5845 11160 c-3 -5 -1 -10 4 -10 6 0 11 5 11 10 0 6 -2 10 -4 10 -3
0 -8 -4 -11 -10z"/>
<path  stroke-width="50" d="M5290 11086 c-36 -13 -77 -28 -92 -34 -16 -6 -28 -9 -28 -6 0 4 -6 1
-13 -5 -8 -6 -17 -8 -20 -5 -3 3 -11 3 -17 -1 -6 -4 -30 -9 -53 -11 -96 -9
-124 -13 -167 -24 -25 -6 -63 -15 -85 -19 -23 -4 -47 -11 -55 -16 -16 -10 -35
-16 -60 -17 -8 -1 -20 -8 -27 -17 -9 -11 -12 -12 -13 -3 0 8 -5 10 -12 5 -7
-4 -20 -8 -28 -10 -8 -1 -16 -7 -18 -12 -2 -6 -8 -11 -13 -11 -6 0 -8 4 -5 9
3 4 -6 6 -19 3 -14 -2 -25 -9 -25 -14 0 -5 -9 -6 -20 -3 -11 4 -20 2 -20 -4 0
-6 -6 -10 -12 -8 -8 1 -12 -7 -10 -22 2 -21 0 -22 -15 -10 -13 11 -17 11 -20
2 -3 -7 -10 -13 -16 -13 -6 0 -22 -12 -35 -27 -17 -20 -25 -24 -31 -15 -6 10
-12 6 -25 -12 -14 -23 -14 -26 -1 -26 8 0 15 5 15 10 0 6 8 10 18 10 9 0 26 7
36 15 11 8 30 15 42 15 12 0 27 7 34 15 7 8 17 15 23 15 5 0 33 11 61 24 28
13 67 26 86 28 19 2 53 12 75 22 22 9 53 15 69 13 16 -2 41 2 56 9 14 8 58 17
98 20 42 4 72 12 72 18 0 7 22 11 54 12 30 0 61 5 68 11 7 6 31 14 53 18 61
10 206 67 202 79 -6 18 -39 16 -107 -8z"/>
<path  stroke-width="50" d="M3200 10926 c0 -8 4 -17 9 -20 5 -4 7 3 4 14 -6 23 -13 26 -13 6z"/>
<path  stroke-width="50" d="M4240 10655 c-55 -12 -138 -48 -232 -101 -31 -18 -133 -117 -154
-150 -10 -16 -36 -51 -56 -77 -21 -27 -38 -55 -38 -62 0 -7 -11 -27 -25 -44
-14 -16 -28 -44 -30 -62 -2 -17 -13 -41 -24 -53 -25 -26 -41 -69 -41 -107 0
-16 -4 -29 -10 -29 -13 0 -42 -69 -34 -82 3 -5 -1 -20 -10 -33 -9 -13 -18 -48
-20 -77 -3 -29 -12 -109 -21 -178 -9 -69 -14 -150 -11 -180 3 -30 8 -102 11
-160 4 -58 13 -139 21 -180 9 -41 17 -102 20 -135 9 -113 17 -170 38 -250 9
-32 16 -72 16 -88 0 -34 19 -106 33 -124 5 -8 6 -13 0 -13 -17 0 -13 -57 7
-101 22 -50 26 -74 9 -63 -9 5 -10 -1 -4 -22 11 -42 23 -217 18 -250 -2 -16
-14 -46 -25 -67 -11 -21 -17 -44 -14 -52 3 -8 -6 -31 -19 -51 -14 -20 -22 -41
-19 -46 3 -5 -1 -17 -10 -27 -9 -10 -18 -39 -21 -66 -3 -27 -9 -53 -15 -59 -5
-5 -10 -20 -10 -33 0 -13 -3 -23 -8 -23 -15 0 -81 -296 -87 -388 -5 -79 -14
-122 -26 -122 -5 0 -9 -5 -9 -11 0 -5 5 -7 12 -3 7 5 8 3 3 -7 -5 -7 -10 -77
-11 -155 -2 -126 0 -144 15 -158 17 -16 18 -12 19 92 1 60 6 122 13 138 6 16
13 43 15 59 2 17 8 77 14 134 6 57 15 113 19 125 5 11 11 44 15 71 7 48 23
104 53 188 10 28 10 43 3 58 -8 15 -7 23 4 35 8 8 31 63 50 121 l34 107 11
-41 c6 -22 9 -47 6 -55 -3 -8 1 -28 10 -44 8 -16 15 -38 15 -49 -1 -15 -5 -12
-18 13 -19 34 -32 33 -32 -2 0 -15 3 -17 9 -8 6 10 10 6 14 -15 3 -15 2 -32
-3 -38 -4 -5 -10 -29 -13 -52 -4 -38 -3 -43 14 -43 10 0 19 -6 18 -12 -1 -23
-15 -49 -24 -49 -12 1 -16 -58 -6 -77 4 -7 2 -41 -6 -75 -7 -34 -10 -68 -7
-76 9 -28 -8 -181 -21 -181 -16 0 -26 -48 -18 -94 3 -21 1 -42 -6 -50 -6 -7
-8 -21 -5 -31 10 -24 33 46 27 79 -3 13 2 39 11 57 9 19 23 87 31 152 8 64 22
150 31 190 8 39 14 108 13 152 -1 44 -1 145 -1 225 1 80 0 165 -3 190 -4 43
19 164 36 185 6 8 63 166 70 193 1 4 3 12 5 17 11 33 45 269 40 281 -3 7 -1
16 4 19 10 6 18 -102 8 -118 -4 -6 -2 -19 3 -28 5 -11 5 -19 -1 -21 -15 -5
-20 -91 -6 -101 6 -5 2 -7 -11 -4 -13 3 -23 1 -23 -4 0 -5 4 -9 10 -9 5 0 8
-18 5 -40 -2 -22 1 -42 6 -45 5 -4 9 -11 9 -18 0 -8 -3 -8 -12 1 -17 17 -33
15 -19 -2 8 -10 9 -16 1 -21 -15 -9 -12 -35 5 -35 8 0 15 -4 15 -10 0 -5 -7
-10 -15 -10 -9 0 -14 -10 -15 -27 -1 -112 -4 -134 -16 -129 -9 4 -12 -6 -11
-34 1 -41 17 -45 17 -4 0 13 5 24 10 24 6 0 10 12 10 28 0 15 10 47 21 72 11
24 19 56 18 70 -2 14 0 34 4 45 4 11 9 50 11 86 6 80 22 185 32 200 5 9 14
178 17 334 0 11 -3 42 -6 69 -4 30 -3 54 4 62 7 9 7 25 -1 53 -6 23 -11 77
-11 121 0 44 -4 80 -8 80 -4 0 -7 24 -7 53 0 28 -4 81 -8 117 -6 49 -6 62 3
54 6 -6 13 -33 16 -60 2 -27 5 -49 5 -49 1 0 3 -9 4 -20 1 -11 10 -45 20 -75
32 -101 35 -111 29 -126 -3 -8 2 -23 10 -32 9 -10 16 -26 15 -37 -1 -37 22
-129 35 -138 8 -6 8 -10 1 -13 -10 -4 -8 -54 3 -84 4 -8 5 -19 4 -24 -1 -5 7
-15 19 -23 11 -8 20 -19 20 -25 0 -6 -8 -4 -18 5 -23 21 -32 21 -32 1 0 -8 4
-13 9 -9 13 7 26 -15 14 -24 -5 -3 -9 -16 -9 -28 0 -17 5 -22 18 -17 12 3 18
0 18 -10 0 -9 -7 -16 -15 -16 -18 0 -19 -5 -4 -32 7 -12 13 -40 14 -62 1 -23
5 -59 8 -80 4 -30 1 -43 -11 -52 -14 -11 -15 -16 -5 -33 7 -11 10 -28 6 -37
-4 -12 -3 -15 6 -10 8 5 10 18 6 33 -3 14 -2 30 3 36 14 18 23 222 12 270 -8
37 -33 166 -46 237 -2 14 -6 36 -8 50 -3 14 -8 54 -12 90 -4 36 -10 67 -13 70
-15 12 -45 130 -47 185 -1 33 -6 78 -12 100 -6 22 -13 67 -16 100 l-5 60 14
-50 c8 -27 19 -70 25 -95 6 -25 21 -65 33 -90 12 -25 20 -49 19 -55 -2 -5 5
-15 14 -22 13 -9 14 -13 4 -13 -11 0 -11 -3 -2 -12 7 -7 12 -20 12 -30 0 -10
6 -21 14 -24 8 -3 11 -15 8 -29 -4 -24 16 -55 37 -55 6 0 11 -5 11 -10 0 -7
-6 -7 -19 0 -13 7 -22 7 -26 0 -3 -5 1 -10 10 -10 10 0 15 -7 13 -17 -2 -12 3
-17 15 -15 19 3 23 -14 5 -22 -9 -3 -8 -8 5 -16 9 -6 17 -18 17 -26 0 -8 9
-25 20 -37 12 -12 16 -23 10 -25 -15 -5 -12 -21 5 -39 18 -17 31 -11 19 8 -4
7 -9 22 -10 33 -7 52 -21 113 -31 131 -25 44 -54 114 -69 166 -8 30 -26 77
-39 105 -13 29 -22 60 -19 70 3 11 -2 38 -10 62 -9 24 -19 72 -22 108 -4 35
-10 64 -13 64 -3 0 -5 41 -4 91 3 97 23 212 48 272 19 46 19 47 -4 47 -29 0
-70 -108 -74 -195 -1 -39 -7 -76 -11 -84 -5 -8 -4 -16 4 -21 8 -5 9 -10 2 -14
-7 -4 -9 -33 -5 -77 4 -51 2 -70 -6 -65 -6 4 -11 38 -11 81 0 41 -4 76 -8 79
-5 3 -5 33 -1 68 4 35 10 99 14 143 3 44 10 98 15 120 15 70 27 112 34 124 4
6 10 24 12 38 9 46 56 123 96 156 42 35 45 42 23 51 -23 8 -99 -66 -134 -130
-16 -30 -35 -78 -41 -107 -7 -28 -16 -67 -21 -86 -5 -19 -6 -38 -3 -43 3 -5 1
-14 -4 -21 -6 -7 -11 -23 -11 -37 -2 -50 -8 -95 -14 -110 -12 -34 -15 -80 -8
-133 4 -31 4 -57 0 -57 -4 0 -5 -9 -2 -20 4 -15 0 -20 -16 -20 -22 0 -26 -18
-22 -120 7 -176 10 -236 16 -320 4 -52 8 -186 10 -296 1 -111 5 -207 9 -213 4
-6 2 -11 -4 -11 -7 0 -9 -9 -5 -22 4 -16 4 -19 -3 -9 -14 20 -30 5 -36 -32 -3
-18 -10 -68 -16 -112 -14 -92 -27 -151 -40 -180 -8 -17 -40 -137 -57 -212 -11
-49 -21 -7 -28 124 -4 76 -11 143 -17 150 -5 7 -11 31 -13 55 -2 24 -11 81
-21 128 -9 47 -18 125 -20 174 -1 49 -5 100 -9 113 -42 167 -72 578 -49 669 3
13 1 39 -6 58 -8 24 -8 40 -1 53 6 10 20 56 31 103 31 131 55 212 73 249 9 19
17 40 17 47 0 20 99 202 129 236 37 43 165 171 182 183 9 6 37 24 62 41 26 18
84 44 130 58 71 23 107 29 222 35 20 2 20 2 1 16 -25 19 -108 18 -196 0z
m-313 -1097 c-3 -7 -5 -2 -5 12 0 14 2 19 5 13 2 -7 2 -19 0 -25z m-240 -1110
c-3 -8 -6 -5 -6 6 -1 11 2 17 5 13 3 -3 4 -12 1 -19z m33 -532 c0 -3 -4 -8
-10 -11 -5 -3 -10 -1 -10 4 0 6 5 11 10 11 6 0 10 -2 10 -4z"/>
<path  stroke-width="50" d="M9277 10563 c-27 -27 17 -191 87 -321 23 -43 128 -182 137 -182 6 0
15 -13 20 -30 6 -16 17 -30 25 -30 7 0 20 -16 29 -36 8 -20 24 -38 35 -41 11
-3 20 -13 20 -22 0 -13 42 -70 77 -104 4 -4 27 -25 51 -47 23 -22 39 -40 35
-40 -5 0 -1 -6 7 -13 9 -7 23 -23 32 -36 9 -13 44 -52 77 -87 34 -35 61 -67
61 -71 0 -4 25 -32 55 -62 30 -29 54 -56 53 -60 -2 -21 3 -41 11 -38 8 2 69
-74 131 -161 28 -39 55 -60 66 -49 7 6 -2 20 -81 132 -19 28 -35 57 -35 66 0
15 -133 181 -151 187 -5 2 -9 9 -9 16 0 7 -14 25 -31 42 -17 16 -60 64 -96
107 -36 42 -72 77 -81 77 -10 0 -23 12 -30 28 -6 15 -38 55 -70 89 -31 34 -77
86 -102 115 -25 28 -60 68 -77 89 -18 20 -33 40 -33 43 0 4 -27 51 -60 104
-71 117 -95 169 -120 263 -19 75 -23 83 -33 72z"/>
<path  stroke-width="50" d="M3162 10340 c0 -14 2 -19 5 -12 2 6 2 18 0 25 -3 6 -5 1 -5 -13z"/>
<path  stroke-width="50" d="M9560 10347 c0 -4 7 -22 16 -39 12 -23 18 -28 24 -17 5 8 5 16 -1 19
-5 4 -16 15 -24 26 -8 10 -15 15 -15 11z"/>
<path  stroke-width="50" d="M9630 10221 c0 -5 5 -13 10 -16 6 -3 10 -2 10 4 0 5 -4 13 -10 16 -5
3 -10 2 -10 -4z"/>
<path  stroke-width="50" d="M8884 10040 c-9 -9 6 -173 20 -210 3 -8 8 -35 10 -60 5 -54 23 -136
36 -159 5 -10 11 -35 13 -58 3 -22 9 -49 15 -59 5 -11 7 -25 5 -32 -3 -7 1
-20 8 -28 7 -9 12 -30 11 -46 -1 -17 4 -40 11 -52 8 -11 13 -36 11 -54 -1 -17
2 -35 7 -38 5 -3 9 -20 9 -39 0 -19 4 -36 9 -39 7 -5 31 -78 36 -111 1 -5 5
-17 8 -25 4 -8 8 -26 11 -40 2 -14 13 -49 25 -77 11 -29 17 -53 13 -53 -4 0
-2 -4 5 -8 7 -4 14 -24 17 -43 2 -20 14 -58 26 -85 13 -27 23 -64 24 -84 0
-19 4 -37 8 -40 4 -3 9 -24 11 -46 3 -23 10 -52 17 -64 14 -27 32 -121 31
-169 0 -19 7 -47 15 -62 15 -30 19 -53 6 -46 -10 7 -2 -156 9 -167 13 -14 11
-26 -3 -26 -14 0 -18 -106 -5 -127 4 -6 2 -13 -4 -15 -8 -3 -7 -12 5 -31 10
-14 16 -32 14 -39 -3 -8 -11 -1 -20 16 -11 21 -17 25 -23 16 -5 -9 -4 -15 3
-18 14 -4 16 -38 3 -46 -5 -3 -11 -17 -13 -31 -4 -19 -1 -25 13 -25 21 0 23
-8 10 -29 -5 -8 -14 -10 -21 -6 -9 6 -11 -2 -8 -31 3 -22 -1 -57 -9 -78 -7
-22 -11 -46 -8 -55 7 -22 -9 -107 -18 -101 -14 9 -28 -28 -32 -81 -3 -57 15
-55 21 2 2 17 8 37 14 44 6 7 19 48 30 91 11 43 30 103 41 133 11 30 19 72 18
95 0 23 4 77 9 121 16 124 13 465 -4 490 -9 13 -14 15 -14 6 0 -8 -3 -11 -6
-8 -4 4 -2 13 5 20 9 11 7 32 -6 88 -9 41 -18 101 -19 134 -1 33 -13 91 -27
130 -14 39 -30 90 -37 115 -6 25 -15 54 -19 65 -15 34 -29 78 -47 148 -11 43
-25 73 -38 82 -11 8 -17 17 -14 20 7 7 -25 152 -46 212 -8 22 -12 43 -10 46 3
3 1 13 -5 24 -11 20 -42 129 -42 153 -1 17 -25 151 -35 190 -3 14 -16 81 -30
150 -27 144 -35 165 -50 150z"/>
<path  stroke-width="50" d="M7138 9799 c-9 -5 -36 -10 -60 -10 -24 -1 -54 -8 -68 -14 -14 -7 -34
-15 -45 -17 -11 -1 -26 -9 -34 -16 -7 -7 -18 -11 -24 -9 -6 2 -36 -13 -67 -34
-30 -20 -57 -33 -58 -27 -5 11 -49 -16 -82 -52 -25 -26 -109 -72 -143 -77 -10
-2 -28 -9 -40 -17 -12 -7 -35 -17 -50 -20 -16 -4 -38 -16 -50 -26 -11 -11 -27
-20 -34 -20 -7 0 -13 -4 -13 -9 0 -4 -11 -20 -25 -35 -13 -15 -30 -36 -36 -47
-6 -11 -13 -18 -16 -15 -3 3 1 16 9 28 9 14 12 34 8 53 l-6 30 -22 -35 c-12
-19 -22 -40 -22 -47 0 -6 -9 -15 -20 -18 -11 -4 -20 -12 -19 -18 1 -7 1 -21 0
-31 -1 -16 -4 -17 -13 -8 -13 13 -48 16 -48 4 0 -4 5 -13 12 -20 19 -19 3 -23
-28 -7 -36 19 -44 19 -44 1 0 -8 3 -16 8 -18 4 -1 20 -20 35 -40 32 -43 43
-47 52 -19 3 11 19 26 35 33 17 7 30 16 30 20 0 5 11 8 24 8 14 0 32 10 41 23
15 20 16 20 13 2 -2 -14 3 -20 16 -20 10 0 24 9 30 20 16 29 28 35 53 29 13
-4 31 -3 40 2 10 4 27 8 38 8 11 1 54 10 95 21 71 19 79 24 153 99 90 90 138
126 171 126 13 0 35 11 50 25 14 13 43 27 64 31 20 4 52 15 70 26 23 13 56 18
115 20 45 1 87 5 92 9 6 4 22 6 36 5 25 -3 77 29 67 40 -7 7 -34 6 -77 -1 -32
-5 -33 -4 -16 9 13 9 22 11 26 4 4 -5 9 -2 13 7 9 24 9 24 -19 19 -14 -2 -25
0 -25 5 0 5 -26 12 -57 16 -32 3 -72 7 -88 9 -17 2 -38 0 -47 -5z m130 -21
c-5 -16 -48 -24 -48 -9 0 8 17 16 43 20 5 0 7 -5 5 -11z m-118 -19 c0 -6 -4
-7 -10 -4 -5 3 -10 11 -10 16 0 6 5 7 10 4 6 -3 10 -11 10 -16z m50 1 c0 -5
-7 -10 -15 -10 -8 0 -15 5 -15 10 0 6 7 10 15 10 8 0 15 -4 15 -10z m-276
-105 c-9 -14 -19 -23 -22 -20 -5 4 26 45 35 45 2 0 -4 -11 -13 -25z m-184
-135 c-14 -11 -29 -20 -35 -20 -5 0 4 9 20 20 38 25 48 25 15 0z m-378 -182
c-7 -7 -12 -8 -12 -2 0 14 12 26 19 19 2 -3 -1 -11 -7 -17z"/>
<path  stroke-width="50" d="M6950 9391 c-8 -5 -31 -11 -50 -15 -92 -15 -132 -28 -182 -58 -29
-17 -55 -35 -58 -39 -8 -10 -69 -40 -76 -37 -10 5 -25 -32 -18 -44 4 -6 3 -9
-2 -6 -11 7 -29 -12 -29 -32 0 -8 -6 -14 -12 -12 -7 1 -13 -7 -13 -18 0 -19 1
-19 22 -2 12 9 42 36 66 59 25 24 54 45 64 49 11 3 29 15 40 26 11 11 26 17
33 14 7 -2 19 2 26 10 6 8 29 17 50 20 22 4 39 10 39 14 0 8 14 11 135 33 49
9 70 17 70 27 0 17 -80 26 -105 11z"/>
<path  stroke-width="50" d="M7083 9372 c-6 -24 -49 -44 -107 -49 -59 -5 -80 -8 -91 -15 -6 -3
-23 -8 -40 -12 -41 -10 -85 -29 -85 -38 0 -5 -7 -8 -15 -8 -8 0 -15 -5 -15
-11 0 -5 -4 -8 -9 -5 -5 3 -20 -5 -35 -19 -15 -13 -29 -25 -31 -25 -3 0 -9 0
-15 0 -5 0 -10 -7 -10 -16 0 -10 -6 -14 -14 -11 -10 4 -13 1 -9 -9 3 -8 2 -14
-3 -13 -21 4 -25 -2 -13 -18 12 -15 12 -16 -5 -10 -14 6 -17 4 -12 -8 3 -9 0
-18 -8 -21 -8 -3 -11 -15 -8 -31 4 -22 2 -25 -13 -20 -13 6 -16 3 -11 -9 4
-12 2 -15 -9 -11 -9 4 -30 -10 -54 -36 -31 -32 -44 -56 -52 -97 -7 -30 -16
-60 -21 -66 -5 -7 -2 -14 8 -18 25 -10 50 30 45 72 -1 6 3 12 9 12 5 0 10 5
10 12 0 6 18 33 40 59 22 26 40 50 40 54 0 4 6 13 14 21 8 7 16 19 19 26 6 18
18 5 20 -21 1 -14 10 -24 25 -28 30 -7 36 0 21 25 -10 16 -10 29 1 64 7 26 15
37 18 28 6 -19 34 -40 44 -34 4 3 5 17 2 32 -3 15 -1 39 5 55 13 34 41 36 41
2 0 -13 7 -28 15 -32 8 -5 16 -21 17 -35 1 -17 12 -32 30 -43 15 -9 28 -20 28
-26 0 -5 6 -9 14 -9 8 0 16 -4 18 -10 2 -5 18 -10 36 -12 19 -1 36 -6 38 -10
3 -4 4 -8 2 -9 -2 0 -30 -2 -63 -5 -53 -5 -88 -11 -160 -30 -11 -2 -33 -5 -48
-6 -15 -1 -30 -5 -34 -11 -3 -5 -9 -3 -14 4 -6 11 -14 8 -37 -14 -15 -15 -31
-25 -34 -22 -3 3 -8 -1 -11 -9 -7 -17 37 -13 101 10 23 9 49 13 57 10 9 -3 27
0 41 6 20 9 27 9 33 -1 6 -9 14 -10 27 -3 11 5 43 12 72 16 29 4 70 14 90 23
76 33 122 58 122 67 0 5 6 4 13 -2 20 -17 44 -9 80 26 33 32 49 36 171 41 15
1 16 4 6 16 -7 8 -20 15 -29 15 -14 1 -14 2 1 11 10 5 24 9 30 7 30 -5 55 13
55 40 -1 15 3 40 8 56 7 27 7 29 -16 22 -48 -15 -79 -18 -79 -8 0 6 9 14 21
17 16 5 39 40 39 61 0 10 -30 3 -37 -10 -13 -22 -103 -49 -119 -35 -17 14 -9
29 15 29 14 0 41 36 41 55 0 11 -25 4 -42 -12 -10 -9 -38 -18 -61 -20 -23 -1
-54 -4 -69 -6 -16 -3 -28 0 -28 4 0 5 4 9 9 9 11 0 2 38 -11 46 -5 3 -12 -3
-15 -14z m-6 -131 c-1 -4 10 -18 25 -32 l27 -24 -26 -52 c-14 -29 -32 -53 -39
-53 -8 0 -14 -5 -14 -11 0 -6 -6 -9 -12 -6 -7 2 -23 0 -35 -4 -31 -11 -110 17
-129 47 -9 13 -25 26 -36 30 -11 3 -17 12 -14 19 3 8 0 16 -7 19 -7 3 2 3 20
0 28 -5 31 -3 26 15 -5 20 22 42 62 48 132 20 157 21 152 4z m133 -42 c0 -5
-4 -9 -10 -9 -5 0 -10 7 -10 16 0 8 5 12 10 9 6 -3 10 -10 10 -16z m100 -15
c7 -7 1 -9 -20 -6 -16 2 -30 8 -30 13 0 11 37 6 50 -7z"/>
<path  stroke-width="50" d="M6985 9200 c-10 -11 -30 -20 -45 -20 -36 0 -35 -27 1 -46 51 -26 107
15 88 64 -10 27 -21 28 -44 2z"/>
<path  stroke-width="50" d="M10290 9120 c0 -5 -7 -7 -16 -3 -14 5 -15 3 -4 -17 7 -13 24 -33 39
-46 14 -13 20 -24 13 -24 -10 0 -8 -8 6 -27 24 -36 67 -126 64 -135 -1 -4 5
-5 13 -2 8 4 15 1 15 -5 0 -6 -5 -11 -11 -11 -6 0 -3 -7 5 -16 9 -8 16 -26 16
-38 0 -13 9 -31 20 -41 11 -10 19 -23 17 -29 -2 -6 9 -19 25 -28 15 -10 28
-22 28 -28 0 -6 -11 -3 -24 5 -16 11 -26 13 -31 6 -6 -10 1 -15 18 -12 9 1 13
-11 21 -60 5 -31 10 -36 26 -32 15 4 20 0 20 -15 0 -11 -5 -22 -11 -24 -6 -2
-2 -15 11 -31 12 -14 24 -44 27 -64 3 -21 13 -47 22 -58 23 -28 46 -98 34
-102 -6 -2 -8 -16 -6 -31 2 -15 -7 5 -20 44 -30 90 -50 134 -60 134 -19 0 -17
-33 7 -101 14 -41 27 -85 29 -99 5 -33 46 -171 57 -191 5 -9 6 -26 3 -38 -3
-12 -1 -21 6 -21 6 0 8 -11 5 -30 -4 -17 -1 -36 5 -44 7 -8 8 -22 3 -36 -5
-13 -6 -42 -2 -64 7 -42 5 -350 -3 -536 -3 -58 -1 -113 4 -122 8 -14 6 -16 -7
-11 -15 6 -16 1 -10 -36 3 -24 3 -40 -2 -37 -9 5 -14 -28 -16 -101 0 -24 -3
-43 -7 -43 -15 0 -32 -117 -18 -126 5 -3 9 -13 8 -22 0 -13 -3 -12 -11 6 -6
12 -15 22 -20 22 -12 0 -10 -14 4 -28 9 -9 10 -15 2 -20 -6 -4 -14 -17 -18
-29 -6 -18 -3 -23 9 -23 9 0 15 -6 12 -12 -2 -7 -10 -12 -16 -10 -6 1 -11 -4
-12 -10 0 -7 -3 -29 -5 -48 -5 -37 -9 -77 -12 -123 -1 -15 -7 -26 -14 -25 -8
2 -13 -14 -14 -46 -1 -30 2 -43 7 -35 5 8 9 23 9 34 0 11 7 29 15 39 8 11 15
29 15 41 0 12 11 50 25 85 14 35 25 78 25 96 0 18 5 45 10 60 6 15 13 59 16
98 4 39 16 112 29 161 13 54 23 127 24 184 1 52 7 104 13 115 7 12 12 101 14
219 3 164 1 199 -11 203 -11 4 -11 11 -3 29 12 27 2 192 -13 201 -5 3 -9 18
-9 34 0 16 -5 41 -10 56 -9 21 -7 29 7 41 10 8 13 12 7 9 -22 -11 -48 105 -34
154 8 27 6 46 -9 90 -11 30 -25 84 -32 120 -6 36 -24 89 -40 117 -16 29 -29
59 -29 67 0 18 -54 135 -86 186 -11 19 -22 40 -24 45 -3 10 -50 114 -89 197
-20 42 -51 71 -51 48z"/>
<path  stroke-width="50" d="M4966 9102 c-3 -2 -51 -5 -108 -7 -57 -2 -132 -10 -168 -19 -36 -8
-85 -17 -109 -19 -31 -2 -49 -10 -62 -26 -10 -12 -23 -20 -29 -16 -5 3 -10 -1
-10 -10 0 -21 -27 -48 -40 -40 -5 3 -10 1 -10 -5 0 -6 -5 -8 -12 -4 -8 5 -9 0
-6 -14 4 -12 2 -19 -3 -16 -11 6 -32 -14 -42 -40 -4 -11 -13 -16 -22 -12 -8 3
-15 1 -15 -3 0 -5 -3 -17 -6 -26 -6 -15 -4 -15 14 -4 26 16 40 5 25 -20 -6
-10 -8 -23 -4 -30 6 -9 18 -2 42 23 56 60 122 86 230 90 51 2 104 -1 118 -6
14 -6 45 -10 68 -9 23 1 44 -3 48 -9 4 -6 44 -9 111 -6 107 4 166 14 264 44
30 9 57 17 60 17 32 1 33 42 1 79 -13 16 -13 18 -1 14 14 -4 54 -56 62 -80 3
-9 16 -7 42 6 l37 17 -20 32 c-33 54 -136 102 -211 97 -46 -3 -91 -2 -173 2
-37 3 -69 3 -71 0z m-6 -102 c0 -5 -2 -10 -4 -10 -3 0 -8 5 -11 10 -3 6 -1 10
4 10 6 0 11 -4 11 -10z m43 3 c-7 -2 -19 -2 -25 0 -7 3 -2 5 12 5 14 0 19 -2
13 -5z m-375 -16 c15 4 15 3 2 -6 -18 -13 -50 -14 -50 -2 0 12 24 20 28 10 2
-4 11 -5 20 -2z m-63 -27 c-3 -5 -12 -7 -20 -3 -21 7 -19 13 6 13 11 0 18 -4
14 -10z m225 -18 c0 -14 -11 -21 -26 -15 -8 3 -11 9 -8 14 7 11 34 12 34 1z
m93 -9 c3 -5 -15 -8 -39 -9 -24 0 -41 3 -38 8 6 10 71 11 77 1z m37 -3 c0 -5
-4 -10 -10 -10 -5 0 -10 5 -10 10 0 6 5 10 10 10 6 0 10 -4 10 -10z"/>
<path  stroke-width="50" d="M6393 9030 c-32 -35 -49 -69 -73 -145 -5 -15 11 -65 20 -65 10 0 15
17 25 73 3 20 9 37 13 37 4 0 13 14 21 30 7 17 24 44 37 59 21 25 22 30 9 41
-12 10 -21 5 -52 -30z"/>
<path  stroke-width="50" d="M5124 8738 c-3 -4 -19 -8 -35 -8 -25 0 -101 -32 -119 -50 -3 -3 -14
-6 -25 -8 -11 -2 -24 -9 -30 -16 -5 -7 -15 -11 -21 -9 -7 2 -19 -3 -28 -12 -9
-9 -21 -13 -27 -9 -8 4 -9 3 -5 -4 4 -7 1 -12 -9 -12 -12 0 -15 -6 -11 -22 3
-13 3 -17 0 -10 -8 17 -24 15 -24 -3 0 -8 -4 -15 -9 -15 -5 0 -12 -11 -15 -25
-4 -16 -11 -22 -21 -19 -8 4 -15 1 -15 -6 0 -6 -4 -9 -9 -6 -11 7 -28 -13 -33
-39 -2 -11 -10 -20 -18 -21 -35 -2 -40 -5 -40 -19 0 -9 -6 -15 -12 -14 -19 2
-58 -12 -58 -21 0 -5 -6 -15 -14 -23 -12 -11 -46 -96 -46 -112 0 -14 22 -1 53
30 33 33 61 49 39 23 -5 -7 -12 -22 -14 -33 -1 -11 -7 -23 -13 -27 -15 -11 2
-20 24 -13 12 3 21 12 21 19 0 7 8 21 18 32 10 10 21 27 25 37 8 21 21 22 37
2 7 -8 24 -15 39 -15 15 0 37 -7 49 -16 12 -8 26 -13 30 -10 4 2 14 1 21 -3
10 -7 64 1 152 23 73 18 107 33 126 54 12 13 26 21 31 18 6 -3 13 1 16 10 5
13 1 15 -19 12 -14 -3 -25 -4 -25 -2 0 6 59 34 67 32 12 -4 123 52 123 63 0 5
7 9 15 9 8 0 15 -4 15 -10 0 -20 21 -9 30 15 5 14 16 25 24 25 7 0 27 7 42 15
16 8 43 15 61 15 28 0 53 20 53 44 0 9 -91 66 -105 66 -8 0 -32 9 -54 21 -22
11 -45 18 -51 14 -5 -3 -10 -1 -10 4 0 6 -7 11 -15 11 -8 0 -15 4 -15 8 0 9
-8 10 -98 15 -35 2 -65 0 -68 -5z m160 -60 c24 -13 29 -22 32 -68 4 -44 1 -55
-17 -71 -12 -11 -28 -19 -36 -19 -12 0 -52 -19 -63 -30 -20 -20 -81 -41 -101
-35 -33 10 -96 78 -94 101 2 23 33 84 43 84 4 0 13 -9 20 -20 18 -29 36 -25
28 6 -5 20 -3 27 13 31 12 3 18 10 15 15 -4 6 -1 13 5 17 19 12 126 4 155 -11z
m161 -80 c-19 -5 -32 -3 -36 4 -13 21 1 27 34 16 l32 -12 -30 -8z m-484 -73
c13 -33 31 -58 54 -74 33 -22 39 -49 9 -37 -9 4 -18 -3 -24 -17 -8 -19 -15
-10 -11 15 0 4 -6 5 -15 1 -8 -3 -13 -12 -10 -19 3 -8 1 -14 -4 -14 -6 0 -10
6 -11 13 0 9 -2 9 -6 -1 -2 -6 -9 -9 -15 -6 -6 4 -14 0 -19 -7 -8 -12 -10 -12
-18 0 -8 12 -12 12 -26 -2 -12 -13 -13 -17 -3 -18 67 -7 93 -7 103 1 7 6 14 7
17 4 3 -2 24 3 47 12 23 9 44 14 47 11 8 -8 -56 -37 -82 -37 -13 0 -25 -4 -28
-8 -7 -11 -144 -14 -181 -4 -39 11 -38 29 3 112 l32 65 -5 -66 c-3 -52 -1 -66
10 -66 8 0 12 4 9 9 -3 4 0 8 5 8 6 0 11 10 12 23 0 12 6 38 13 57 10 27 18
34 34 32 16 -2 20 1 16 13 -4 8 0 30 7 47 8 19 14 26 17 17 2 -8 12 -36 23
-64z m-241 -135 c-18 -33 -23 -16 -8 26 10 30 14 33 16 16 2 -11 -2 -31 -8
-42z"/>
<path  stroke-width="50" d="M5186 8615 c-8 -8 -20 -15 -26 -15 -7 0 -9 -8 -5 -19 4 -14 0 -21
-17 -27 -13 -4 -26 -7 -30 -6 -12 3 -9 -13 4 -26 8 -8 17 -8 30 -1 10 5 23 7
28 4 6 -3 10 -1 10 5 0 6 4 9 8 6 12 -7 49 26 56 51 5 16 2 25 -13 32 -25 14
-27 14 -45 -4z"/>
<path  stroke-width="50" d="M9143 8735 c-6 -16 -4 -32 21 -175 25 -148 42 -580 23 -580 -6 0 -7
-17 -4 -41 3 -25 0 -54 -10 -77 -8 -20 -13 -50 -10 -68 4 -21 1 -37 -8 -44 -7
-6 -17 -30 -20 -52 -4 -23 -13 -55 -20 -72 -7 -17 -13 -47 -13 -66 0 -19 -7
-48 -15 -64 -9 -16 -13 -34 -11 -41 3 -7 1 -16 -5 -20 -6 -3 -11 -14 -11 -25
0 -10 -9 -35 -19 -57 -11 -21 -24 -56 -30 -78 -26 -102 -49 -176 -60 -189 -6
-7 -14 -33 -17 -56 -4 -24 -17 -73 -31 -109 -13 -36 -26 -77 -29 -91 -3 -13
-9 -29 -14 -35 -4 -5 -18 -60 -30 -120 -12 -61 -25 -126 -30 -146 -4 -23 -2
-45 5 -59 13 -25 14 -23 56 163 12 53 30 108 41 122 11 14 16 25 13 25 -4 0
-3 6 2 13 6 6 14 30 17 52 9 46 28 111 63 210 13 39 31 93 40 120 8 28 30 94
50 149 22 63 33 110 30 130 -2 17 2 40 9 51 26 40 78 265 89 390 14 149 18
212 21 325 1 69 -1 148 -6 175 -4 28 -16 97 -25 155 -16 99 -42 200 -51 200
-3 0 -7 -7 -11 -15z"/>
<path  stroke-width="50" d="M5430 8713 c0 -18 57 -53 85 -53 8 0 15 -4 15 -9 0 -4 11 -6 25 -3
29 5 34 32 7 32 -11 0 -29 9 -42 20 -13 11 -26 20 -29 21 -3 0 -18 3 -33 5
-22 4 -28 1 -28 -13z"/>
<path  stroke-width="50" d="M5730 8660 c0 -5 5 -10 11 -10 6 0 9 -6 6 -13 -3 -7 1 -24 9 -38 7
-13 13 -34 14 -47 0 -12 7 -25 15 -28 8 -4 15 -13 15 -21 0 -8 7 -28 16 -45
17 -33 35 -123 40 -203 8 -126 17 -200 23 -203 4 -1 5 -17 3 -35 -4 -38 15
-276 24 -300 3 -9 12 -13 20 -10 12 4 14 20 9 77 -7 90 -14 138 -20 144 -3 3
0 11 6 19 9 10 8 13 0 13 -7 0 -9 5 -5 12 17 28 1 258 -22 313 -8 19 -11 41
-8 49 3 9 2 16 -3 16 -6 0 -10 15 -11 32 0 18 -6 34 -11 36 -6 2 -11 8 -11 13
0 6 4 7 10 4 6 -4 7 2 1 17 -4 13 -19 29 -32 36 -23 13 -23 14 -2 9 13 -3 26
-1 29 4 3 5 -2 9 -10 9 -10 0 -13 6 -9 16 5 13 2 15 -18 9 -21 -7 -22 -6 -10
9 9 10 10 16 2 16 -6 0 -11 9 -11 20 0 11 -7 20 -15 20 -14 0 -20 12 -16 33 1
9 -24 37 -33 37 -3 0 -6 -4 -6 -10z"/>
<path  stroke-width="50" d="M5565 8610 c-3 -5 -3 -21 1 -36 4 -17 2 -29 -7 -35 -22 -13 4 -31 35
-23 21 5 26 12 26 39 0 41 -39 81 -55 55z"/>
<path  stroke-width="50" d="M8490 8570 c0 -13 18 -22 24 -11 3 5 -1 11 -9 15 -8 3 -15 1 -15 -4z"/>
<path  stroke-width="50" d="M4085 8301 c-3 -5 -1 -12 5 -16 5 -3 10 1 10 9 0 18 -6 21 -15 7z"/>
<path  stroke-width="50" d="M10656 8203 c9 -40 22 -50 16 -13 -2 17 -8 33 -14 36 -5 3 -6 -6 -2
-23z"/>
<path  stroke-width="50" d="M2938 7955 c-3 -16 -1 -25 7 -25 8 0 10 9 7 25 -2 14 -6 25 -7 25 -1
0 -5 -11 -7 -25z"/>
<path  stroke-width="50" d="M2046 7747 c-15 -19 -26 -37 -26 -41 0 -4 -18 -45 -40 -92 -22 -47
-43 -97 -47 -112 -3 -15 -18 -54 -33 -87 -15 -33 -37 -103 -50 -155 -13 -52
-31 -122 -40 -155 -10 -33 -21 -79 -25 -102 -4 -24 -11 -45 -16 -49 -5 -3 -9
-22 -9 -43 0 -21 -9 -60 -21 -86 -13 -30 -19 -58 -15 -76 3 -15 1 -31 -5 -35
-12 -7 -29 -48 -34 -84 -2 -14 -11 -43 -19 -65 -8 -22 -15 -59 -16 -81 0 -23
-7 -55 -15 -70 -8 -16 -12 -36 -9 -46 2 -9 0 -19 -6 -23 -5 -3 -10 -15 -10
-26 0 -10 -8 -38 -19 -62 -10 -23 -31 -96 -46 -162 -16 -66 -37 -136 -47 -155
-10 -19 -18 -46 -18 -59 0 -31 -38 -138 -61 -172 -10 -14 -15 -29 -12 -33 4
-3 -3 -20 -15 -36 -12 -16 -22 -36 -22 -45 0 -8 -4 -15 -8 -15 -5 0 -9 -6 -9
-12 0 -7 -10 -33 -21 -57 -12 -25 -22 -49 -22 -54 0 -4 -11 -23 -24 -40 -30
-40 -58 -107 -52 -123 3 -7 -3 -18 -12 -26 -15 -12 -16 -11 -3 5 7 9 9 17 4
17 -17 0 -41 -34 -60 -85 -10 -27 -22 -48 -27 -45 -4 3 -17 -13 -28 -35 -11
-22 -28 -49 -38 -60 -29 -33 -70 -114 -70 -139 0 -30 -10 -39 -28 -23 -13 10
-15 9 -9 -5 3 -9 -1 -22 -8 -28 -8 -7 -13 -15 -10 -19 2 -4 -7 -20 -21 -36
-13 -16 -27 -46 -30 -67 -4 -21 -10 -38 -15 -38 -5 0 -9 -22 -9 -49 0 -59 -17
-78 -22 -24 -3 37 -3 38 -16 14 -8 -13 -9 -20 -3 -17 16 10 14 -30 -3 -46 -8
-8 -23 -33 -34 -56 -20 -41 -20 -42 -1 -42 22 0 23 -1 7 -35 -6 -14 -17 -24
-24 -21 -9 3 -15 -10 -19 -42 -3 -26 -15 -73 -27 -106 -11 -32 -21 -79 -23
-105 -6 -82 -20 -146 -32 -144 -14 3 -26 -58 -18 -89 3 -13 1 -36 -5 -52 -5
-15 -7 -33 -3 -39 9 -16 21 26 22 81 1 23 7 53 15 65 8 12 20 51 26 87 10 61
32 140 51 185 27 63 58 156 64 194 6 39 22 78 86 221 12 25 27 59 34 75 30 66
57 122 78 160 23 43 146 226 157 235 15 12 50 69 50 83 0 8 8 25 18 38 11 13
49 83 86 154 37 72 75 137 84 145 23 22 38 49 48 90 10 45 8 39 27 82 10 21
17 43 17 50 0 16 29 105 42 131 5 10 20 60 33 110 13 51 38 139 55 197 19 64
30 117 27 136 -3 18 -1 36 3 40 10 10 70 228 95 349 23 107 71 303 84 340 32
98 63 195 65 209 1 8 5 19 9 22 4 4 7 15 7 25 0 23 75 216 129 332 28 62 36
87 26 87 -8 0 -25 -15 -39 -33z"/>
<path  stroke-width="50" d="M6545 7704 c-73 -27 -100 -42 -133 -79 -17 -20 -32 -40 -32 -43 0 -4
-14 -16 -30 -27 -16 -11 -30 -27 -30 -35 0 -13 -1 -13 -10 0 -8 13 -12 10 -13
-10 0 -3 -8 -13 -18 -22 -14 -14 -19 -15 -19 -4 0 7 -11 21 -25 30 -30 19 -89
13 -118 -12 -23 -20 -5 -33 32 -22 27 7 87 -11 74 -23 -3 -4 13 -5 36 -2 31 4
53 15 79 40 21 19 42 35 47 35 6 0 15 10 20 23 6 12 14 22 19 22 5 0 26 16 45
35 45 44 88 63 137 58 47 -4 59 22 19 40 -31 14 -30 14 -80 -4z"/>
<path  stroke-width="50" d="M4480 7663 c0 -9 3 -14 6 -10 4 3 15 -4 25 -16 19 -22 19 -22 2 10
-20 36 -33 42 -33 16z"/>
<path  stroke-width="50" d="M4545 7530 c8 -16 26 -40 40 -54 14 -14 25 -33 25 -44 0 -10 25 -56
56 -102 31 -47 60 -94 65 -105 5 -11 13 -27 18 -35 6 -8 28 -47 51 -87 22 -40
54 -87 71 -105 17 -18 44 -59 60 -90 15 -31 33 -59 39 -63 6 -3 19 -24 31 -46
22 -43 24 -46 101 -132 152 -168 355 -360 374 -353 6 2 24 -7 40 -20 15 -14
53 -39 84 -56 30 -18 69 -42 85 -54 17 -12 40 -25 53 -29 13 -4 37 -21 55 -38
34 -34 60 -48 177 -97 41 -18 89 -38 105 -45 119 -54 148 -65 165 -65 10 0 21
-4 25 -9 3 -5 20 -13 38 -17 17 -3 79 -22 137 -41 80 -26 117 -34 153 -30 28
2 66 -2 90 -10 32 -11 73 -14 167 -10 69 3 132 7 140 10 8 2 33 7 55 12 22 4
45 11 50 16 6 4 36 17 67 29 31 11 75 35 99 53 24 17 60 39 79 48 47 23 155
120 221 198 118 141 229 283 229 292 0 5 4 9 9 9 12 0 44 50 37 57 -11 11 -57
-29 -128 -113 -40 -47 -83 -100 -94 -118 -45 -67 -314 -326 -339 -326 -3 0
-21 -11 -39 -25 -18 -14 -41 -25 -51 -25 -10 0 -29 -10 -42 -22 -13 -12 -37
-23 -54 -24 -52 -4 -99 -14 -99 -23 0 -10 -262 -6 -335 5 -27 4 -54 8 -60 9
-5 1 -17 4 -25 7 -8 4 -26 9 -40 12 -32 6 -216 62 -238 72 -10 4 -24 6 -34 5
-9 -1 -19 3 -23 9 -3 5 -13 10 -22 10 -8 0 -26 8 -39 19 -13 10 -41 22 -61 26
-41 7 -146 54 -151 67 -2 4 -10 8 -18 8 -8 0 -17 7 -20 15 -4 8 -10 12 -15 9
-8 -5 -48 12 -59 25 -3 3 -41 23 -85 44 -44 21 -85 41 -91 45 -6 4 -36 24 -67
45 -31 20 -68 37 -82 37 -14 0 -25 4 -25 10 0 5 8 7 18 3 42 -15 -26 40 -77
63 -38 17 -52 28 -47 39 3 9 0 15 -8 15 -7 0 -35 21 -62 47 -27 27 -68 64 -91
84 -23 20 -39 39 -36 42 3 3 -4 3 -16 0 -12 -3 -21 -1 -21 6 0 6 5 11 10 11 6
0 10 5 10 10 0 6 -7 10 -15 10 -8 0 -15 7 -15 15 0 8 -7 15 -16 15 -8 0 -12 5
-9 10 3 6 1 10 -4 10 -6 0 -11 6 -11 14 0 8 -16 28 -35 45 -19 17 -35 37 -35
45 0 8 -16 23 -35 35 -19 11 -35 25 -35 31 0 12 15 6 43 -18 15 -13 17 -13 17
0 0 8 -7 23 -16 34 -8 10 -13 13 -9 7 3 -7 2 -13 -3 -13 -13 0 -32 24 -36 47
-3 11 -13 36 -24 56 -17 33 -21 35 -33 21 -11 -14 -14 -12 -27 12 -11 20 -11
28 -2 34 9 6 6 16 -10 38 -13 17 -29 33 -36 36 -6 2 -27 32 -45 66 -18 34 -41
65 -51 71 -10 5 -25 24 -34 42 -9 18 -27 44 -41 58 -13 15 -23 33 -21 40 5 24
-23 77 -43 82 -11 3 -25 19 -32 36 -6 17 -17 33 -24 35 -10 4 -10 -2 2 -24z"/>
<path  stroke-width="50" d="M8797 7363 c-6 -10 -37 -127 -48 -181 -5 -24 -15 -58 -23 -75 -9 -18
-25 -68 -36 -112 -11 -44 -25 -88 -30 -97 -6 -10 -10 -27 -10 -39 0 -11 -7
-27 -16 -36 -8 -9 -13 -22 -9 -31 3 -8 -4 -25 -15 -37 -12 -12 -22 -33 -23
-47 -1 -13 -10 -32 -19 -42 -10 -10 -18 -24 -18 -32 0 -8 -8 -26 -17 -40 -9
-14 -18 -37 -19 -51 -2 -14 -8 -31 -13 -36 -6 -6 -11 -21 -11 -34 0 -13 -4
-23 -10 -23 -5 0 -10 -7 -10 -15 0 -9 -6 -26 -14 -38 -12 -19 -38 -108 -42
-142 0 -5 -6 -21 -11 -35 -9 -21 -22 -106 -25 -160 -1 -8 -7 -20 -13 -26 -7
-7 -12 -54 -13 -123 -1 -61 -4 -116 -7 -121 -3 -5 1 -25 9 -45 9 -20 11 -33 6
-30 -13 8 -22 -32 -12 -52 5 -10 10 -50 11 -88 0 -39 5 -85 10 -102 5 -17 6
-34 3 -38 -4 -3 1 -3 11 1 10 3 17 1 17 -5 0 -6 -8 -11 -17 -11 -14 0 -15 -2
-5 -9 8 -4 13 -11 13 -15 -5 -32 2 -67 14 -80 8 -8 13 -21 10 -28 -4 -9 4 -19
20 -26 14 -6 25 -17 25 -23 0 -7 -9 -5 -25 5 -24 16 -25 15 -25 -3 0 -14 5
-19 15 -15 9 4 15 0 16 -7 5 -55 17 -78 39 -72 15 4 20 0 20 -15 0 -11 -6 -23
-12 -26 -9 -3 -4 -12 13 -28 15 -13 30 -33 34 -46 4 -13 29 -47 56 -75 27 -28
47 -58 44 -65 -6 -16 16 -52 32 -52 6 0 18 -8 25 -18 7 -10 20 -22 27 -27 8
-5 5 6 -8 23 -12 18 -26 32 -31 32 -5 0 -12 10 -16 23 -3 12 -25 51 -49 87
-23 36 -50 85 -59 110 -10 25 -28 59 -40 75 -33 43 -106 276 -118 375 -5 47
-8 106 -6 132 3 27 1 48 -3 48 -5 0 -7 51 -5 114 3 84 8 120 20 138 9 14 16
41 15 59 -2 63 43 252 86 359 16 40 24 75 21 93 -3 15 -2 27 3 27 7 0 81 147
81 162 0 3 8 23 17 44 9 22 18 46 19 54 3 16 33 96 84 225 17 44 33 91 35 105
2 14 14 68 28 120 33 126 39 170 21 170 -7 0 -15 -3 -17 -7z"/>
<path  stroke-width="50" d="M6673 7272 c-24 -2 -43 -7 -43 -13 0 -5 -8 -9 -17 -9 -10 0 -39 -21
-65 -47 -45 -44 -51 -47 -105 -49 -32 -1 -79 1 -104 5 -38 6 -54 3 -86 -14
-35 -18 -102 -75 -89 -75 3 0 -6 -12 -19 -26 -21 -22 -23 -30 -13 -48 10 -18
9 -19 -4 -8 -20 16 -25 7 -22 -41 2 -25 -1 -35 -9 -30 -7 4 -8 0 -4 -11 4 -10
7 -20 7 -23 0 -7 24 21 37 44 6 11 15 37 18 57 4 20 15 42 25 49 9 6 22 22 29
35 7 12 16 20 20 17 5 -2 23 3 42 12 24 12 57 16 121 15 106 -1 121 4 177 57
23 23 48 41 54 42 7 0 32 3 57 7 55 7 91 7 152 -1 29 -3 50 -1 54 5 4 7 9 6
14 -2 5 -9 9 -9 14 -1 13 21 -68 42 -159 42 -16 0 -32 3 -35 7 -3 4 -24 6 -47
4z"/>
<path  stroke-width="50" d="M9156 7235 c-3 -9 0 -15 9 -15 9 0 12 6 9 15 -4 8 -7 15 -9 15 -2 0
-5 -7 -9 -15z"/>
<path  stroke-width="50" d="M8215 7180 c-3 -5 -1 -10 4 -10 6 0 11 5 11 10 0 6 -2 10 -4 10 -3 0
-8 -4 -11 -10z"/>
<path  stroke-width="50" d="M7150 7167 c-31 -10 -63 -30 -106 -66 -7 -6 -15 -7 -18 -4 -3 4 -6 1
-6 -6 0 -8 -7 -11 -15 -7 -8 3 -15 2 -15 -2 0 -4 -50 -7 -111 -7 -61 0 -113
-3 -115 -6 -2 -4 -22 -9 -44 -13 -22 -3 -55 -15 -74 -25 -19 -11 -37 -17 -41
-13 -3 3 -10 0 -15 -8 -5 -7 -23 -14 -41 -15 -18 -1 -34 -6 -36 -12 -2 -6 -13
-9 -23 -6 -13 4 -27 -3 -39 -18 l-20 -24 6 23 c3 13 1 22 -6 22 -7 0 -9 -4 -6
-10 3 -5 -3 -10 -14 -10 -15 0 -19 -4 -14 -17 6 -16 5 -16 -10 -4 -15 12 -17
11 -17 -2 0 -9 -9 -18 -19 -22 -11 -3 -18 -12 -15 -19 3 -7 -2 -19 -11 -26
-11 -9 -15 -9 -15 -1 0 7 -4 9 -10 6 -16 -10 -11 -25 9 -25 10 0 25 7 32 16 7
9 22 20 34 25 11 5 27 13 35 18 30 19 119 51 140 51 11 0 48 12 81 26 113 47
73 7 -58 -59 -48 -24 -73 -32 -77 -24 -3 8 -5 8 -5 -1 -1 -7 -6 -10 -13 -6 -8
5 -9 2 -5 -10 4 -9 3 -15 -2 -11 -5 3 -17 -3 -27 -12 -13 -13 -18 -15 -22 -5
-3 10 -7 10 -18 1 -24 -20 -16 -25 40 -23 64 2 155 23 177 41 9 7 18 11 20 9
9 -9 196 89 192 101 -3 7 13 14 41 18 25 4 46 11 46 15 0 4 22 10 49 14 27 4
51 10 53 14 2 6 95 53 197 101 7 4 13 11 13 16 -2 14 -42 15 -82 2z"/>
<path  stroke-width="50" d="M3181 7107 c-6 -8 -13 -27 -16 -43 -12 -67 -11 -339 2 -464 8 -74 14
-148 13 -164 0 -15 5 -34 11 -42 6 -7 8 -26 4 -42 -3 -16 0 -42 6 -58 7 -16
11 -48 10 -70 -1 -23 2 -45 8 -49 6 -3 11 -17 11 -31 0 -14 9 -42 20 -64 11
-22 20 -48 20 -58 0 -11 7 -25 15 -32 8 -7 12 -16 9 -22 -3 -5 -1 -14 4 -21 5
-7 14 -30 20 -52 11 -44 53 -147 63 -155 3 -3 12 -23 19 -45 7 -22 17 -49 23
-60 37 -69 58 -121 60 -145 1 -15 5 -26 9 -24 4 3 10 -8 14 -23 3 -15 21 -59
39 -98 18 -38 40 -90 49 -115 15 -44 56 -85 56 -58 0 14 -41 121 -67 175 -9
18 -17 50 -18 71 -2 33 -41 130 -100 245 -8 16 -15 33 -15 38 0 6 -11 35 -25
65 -26 58 -60 146 -76 202 -6 18 -19 38 -30 45 -10 6 -19 21 -19 32 0 11 -14
74 -30 140 -17 66 -30 130 -30 142 0 12 -4 24 -9 27 -14 9 -22 139 -27 456 -3
167 -6 306 -8 307 -2 2 -8 -3 -15 -10z"/>
<path  stroke-width="50" d="M7224 7098 c-50 -58 -86 -134 -89 -185 0 -6 -3 -15 -7 -18 -4 -4 -4
-13 -2 -20 3 -7 -2 -15 -11 -19 -9 -3 -13 -11 -10 -16 4 -6 -5 -20 -19 -31
-14 -11 -26 -25 -26 -31 0 -11 -40 -47 -53 -48 -5 0 -23 -11 -41 -25 -18 -14
-36 -25 -40 -25 -4 0 -16 -9 -28 -20 -12 -11 -27 -20 -33 -20 -6 0 -38 -13
-70 -30 -32 -16 -63 -30 -68 -30 -5 0 -16 -8 -23 -17 -9 -12 -13 -13 -14 -5 0
10 -5 10 -20 2 -11 -6 -20 -8 -20 -5 0 3 -10 0 -22 -7 -13 -6 -35 -11 -50 -9
-17 1 -28 -2 -28 -10 0 -8 -7 -5 -20 6 -19 17 -20 17 -20 1 0 -9 5 -14 10 -11
6 3 10 2 10 -4 0 -17 -18 -22 -24 -6 -7 20 -36 19 -36 0 0 -8 -4 -15 -10 -15
-5 0 -10 7 -10 15 0 17 -16 20 -25 5 -4 -6 -10 -8 -15 -5 -5 3 -27 1 -50 -4
-33 -7 -40 -6 -36 4 3 9 -5 13 -30 12 -39 -1 -47 -17 -9 -17 14 0 25 -4 25 -9
0 -8 72 -20 125 -21 36 -1 106 10 159 24 28 8 71 18 96 22 25 3 47 9 50 13 12
14 101 50 113 45 8 -3 37 11 66 30 29 20 75 48 102 63 36 20 49 33 45 46 -2 9
1 17 8 17 24 0 67 60 75 102 3 20 45 124 52 133 5 5 9 16 9 26 0 9 18 36 40
61 21 25 36 48 33 52 -13 13 -40 5 -59 -16z"/>
<path  stroke-width="50" d="M8117 7026 c-9 -10 -17 -23 -17 -29 0 -15 -77 -260 -96 -305 -8 -18
-14 -42 -14 -52 0 -11 -5 -20 -11 -20 -5 0 -9 -8 -7 -17 1 -10 -6 -30 -16 -45
-10 -15 -15 -32 -11 -37 3 -6 -3 -20 -14 -32 -11 -12 -18 -26 -14 -32 3 -5 0
-13 -7 -17 -7 -5 -14 -16 -15 -27 -3 -32 -27 -128 -36 -139 -8 -10 -22 -135
-21 -179 5 -132 16 -205 36 -247 9 -17 16 -39 16 -48 0 -9 8 -24 18 -33 38
-35 40 -16 7 72 -10 29 -14 58 -10 82 4 22 2 47 -5 60 -11 19 -15 141 -6 194
9 57 20 102 28 118 6 12 5 23 -3 33 -9 11 -9 18 3 32 8 9 23 42 33 72 10 30
23 69 29 85 6 17 11 32 11 35 2 12 38 116 45 125 7 11 43 103 46 120 1 6 12
44 24 85 38 126 40 179 7 146z"/>
<path  stroke-width="50" d="M3600 6819 c0 -18 3 -29 7 -25 10 10 11 46 1 52 -4 3 -8 -9 -8 -27z"/>
<path  stroke-width="50" d="M6280 6829 c0 -5 5 -7 10 -4 6 3 10 8 10 11 0 2 -4 4 -10 4 -5 0 -10
-5 -10 -11z"/>
<path  stroke-width="50" d="M3438 6739 c-2 -13 2 -42 9 -63 9 -25 10 -42 4 -46 -6 -3 -8 -19 -6
-36 2 -16 5 -62 7 -101 2 -39 6 -69 10 -67 4 2 9 0 13 -6 3 -5 -1 -10 -10 -10
-12 0 -15 -5 -9 -22 4 -13 8 -40 9 -60 1 -20 7 -43 13 -51 7 -8 10 -21 7 -29
-3 -8 3 -23 15 -33 11 -10 20 -25 20 -34 0 -11 -4 -9 -16 7 -19 28 -34 28 -34
1 0 -11 4 -18 9 -15 12 8 34 -21 26 -34 -12 -20 5 -71 23 -68 12 2 16 -3 14
-17 -2 -11 -8 -22 -13 -25 -4 -3 1 -21 12 -39 11 -18 24 -54 30 -81 6 -26 19
-56 30 -66 10 -9 19 -23 19 -31 0 -7 8 -25 17 -39 12 -19 13 -28 4 -33 -14 -9
2 -61 19 -61 6 0 18 -16 26 -35 8 -19 17 -35 20 -35 9 0 -7 44 -22 61 -8 8
-16 29 -17 45 -2 16 -18 66 -34 109 -17 44 -34 102 -38 129 -4 28 -16 73 -27
100 -12 28 -25 74 -29 101 -5 28 -16 84 -25 125 -25 123 -33 208 -29 333 2
103 1 119 -14 124 -9 4 -19 11 -23 16 -3 6 -8 -1 -10 -14z"/>
<path  stroke-width="50" d="M3595 6730 c3 -5 8 -10 11 -10 2 0 4 5 4 10 0 6 -5 10 -11 10 -5 0
-7 -4 -4 -10z"/>
<path  stroke-width="50" d="M8780 6451 c-5 -11 -10 -45 -10 -76 0 -35 -4 -54 -10 -50 -6 4 -10
-8 -11 -27 0 -18 -3 -42 -5 -53 -9 -39 -21 -140 -18 -147 2 -3 -2 -9 -8 -11
-8 -3 -6 -6 5 -6 20 -1 24 -21 4 -21 -9 0 -13 -11 -12 -32 1 -18 -2 -46 -8
-61 -6 -19 -5 -37 4 -58 9 -23 9 -33 1 -38 -8 -5 -5 -16 8 -36 11 -17 20 -39
19 -50 0 -15 -4 -12 -16 13 -20 38 -34 42 -31 8 1 -14 5 -23 9 -20 4 2 9 -6
12 -18 4 -12 2 -25 -3 -28 -5 -3 -8 -22 -7 -43 2 -28 6 -37 20 -37 11 0 17 -8
17 -25 0 -16 -6 -25 -15 -25 -12 0 -14 -7 -9 -27 4 -16 12 -35 19 -43 7 -8 13
-39 14 -69 1 -36 9 -63 22 -79 10 -14 19 -33 19 -43 0 -10 8 -34 17 -54 13
-28 15 -38 5 -44 -15 -9 -7 -35 20 -70 10 -13 18 -32 18 -41 0 -10 7 -23 16
-31 13 -11 14 -9 8 17 -4 16 -13 36 -21 45 -8 9 -16 35 -18 56 -2 22 -13 68
-24 102 -11 35 -23 100 -27 145 -3 44 -12 116 -20 158 -9 43 -15 119 -14 170
1 51 1 98 0 103 -3 17 1 128 6 180 4 49 31 192 55 289 9 42 9 51 -3 60 -8 6
-13 17 -11 24 7 19 -5 14 -17 -7z"/>
<path  stroke-width="50" d="M10481 6344 c0 -11 3 -14 6 -6 3 7 2 16 -1 19 -3 4 -6 -2 -5 -13z"/>
<path  stroke-width="50" d="M6110 5891 c0 -16 24 -28 68 -35 77 -12 192 -114 192 -171 0 -8 5
-15 11 -15 6 0 8 -7 5 -16 -3 -9 -1 -34 4 -56 12 -42 17 -107 25 -312 3 -82 9
-134 17 -144 9 -11 9 -14 1 -9 -17 11 -26 -10 -13 -33 8 -15 8 -20 -1 -20 -7
0 -10 -17 -7 -50 1 -28 0 -51 -4 -53 -16 -5 -16 -72 0 -89 9 -11 11 -18 4 -18
-7 0 -12 5 -12 10 0 6 -8 10 -17 9 -11 0 -13 -3 -6 -6 8 -3 11 -14 7 -29 -4
-17 -1 -26 10 -30 9 -3 13 -10 10 -15 -3 -5 -10 -6 -16 -3 -7 5 -9 -1 -5 -16
3 -12 2 -33 -3 -46 -5 -13 -5 -26 -1 -28 15 -10 10 -56 -6 -56 -11 0 -14 -7
-9 -22 3 -13 6 -30 6 -38 0 -13 2 -13 9 -1 5 8 7 20 4 27 -2 6 0 15 6 19 6 3
11 20 11 36 0 16 7 46 15 65 8 20 14 50 14 68 -2 40 8 153 20 236 6 36 10 94
11 130 0 36 1 90 1 120 3 146 -3 241 -14 246 -7 2 -13 24 -13 49 -2 52 -17 94
-56 153 -15 24 -28 46 -28 51 0 19 -61 63 -113 81 -58 21 -127 27 -127 11z"/>
<path  stroke-width="50" d="M515 5810 c-8 -35 -7 -39 2 -42 4 -2 9 14 10 35 4 44 -3 49 -12 7z"/>
<path  stroke-width="50" d="M9534 5765 c-13 -21 -16 -39 -10 -93 12 -129 65 -246 185 -412 22
-30 45 -65 51 -78 5 -12 17 -25 25 -29 9 -3 23 -23 32 -45 8 -21 24 -43 34
-49 11 -5 19 -17 19 -26 0 -9 11 -31 25 -49 14 -18 25 -36 25 -41 0 -4 14 -24
30 -43 16 -19 30 -40 30 -46 0 -6 9 -19 20 -29 11 -10 17 -21 14 -26 -2 -4 0
-16 6 -26 12 -22 36 -91 56 -163 31 -112 36 -258 11 -355 -3 -11 -11 -42 -18
-70 -7 -27 -20 -59 -30 -70 -25 -30 -39 -61 -40 -87 0 -13 -3 -17 -6 -11 -8
21 -41 -4 -58 -43 -10 -25 -20 -34 -30 -30 -8 3 -15 2 -15 -2 0 -9 -132 -107
-141 -105 -3 1 -5 -8 -4 -20 2 -24 5 -25 38 -2 102 70 217 160 217 170 0 7 8
22 19 34 17 19 66 114 95 181 5 14 17 33 25 43 8 9 11 17 6 17 -4 0 -2 6 4 14
11 13 9 140 -4 251 -16 132 -80 313 -114 322 -11 3 -21 17 -25 33 -6 31 -62
123 -113 186 -18 23 -33 45 -33 49 0 4 -9 17 -21 29 -40 42 -99 125 -144 207
-25 46 -55 99 -66 118 -38 64 -70 179 -70 252 0 38 -2 69 -4 69 -3 0 -12 -11
-21 -25z"/>
<path  stroke-width="50" d="M7910 5730 c0 -9 9 -25 20 -35 11 -10 17 -21 15 -26 -8 -13 41 -116
61 -128 18 -10 18 -10 1 -11 -17 0 -17 -1 -3 -16 9 -8 16 -24 16 -34 0 -11 9
-24 21 -30 11 -7 18 -14 15 -18 -4 -3 6 -12 21 -19 l28 -13 -27 5 c-20 4 -28
1 -28 -9 0 -7 8 -13 18 -12 9 0 16 -5 14 -12 -4 -19 24 -56 33 -43 3 6 10 11
16 11 14 0 11 -28 -3 -32 -9 -3 -8 -9 4 -21 9 -9 21 -17 26 -17 5 0 15 -13 22
-30 7 -16 17 -30 22 -30 18 0 74 -63 60 -68 -17 -5 4 -32 25 -32 7 0 16 -6 19
-14 3 -8 13 -17 21 -20 14 -6 14 -4 2 11 -8 10 -22 24 -31 31 -10 7 -18 19
-18 26 0 7 -12 26 -26 42 -14 16 -36 50 -48 76 -12 25 -37 63 -54 83 -18 19
-32 40 -32 45 0 5 -17 35 -39 67 -45 68 -76 134 -105 222 -17 53 -25 65 -43
66 -16 1 -23 -4 -23 -15z"/>
<path  stroke-width="50" d="M496 5691 c-4 -7 -5 -15 -2 -18 9 -9 19 4 14 18 -4 11 -6 11 -12 0z"/>
<path  stroke-width="50" d="M10206 5685 c-20 -54 23 -177 104 -295 25 -36 47 -70 50 -77 5 -12
156 -178 218 -239 17 -18 32 -40 32 -48 0 -8 13 -25 29 -37 16 -12 37 -41 46
-65 9 -24 25 -49 35 -54 11 -6 20 -27 25 -57 4 -26 10 -50 14 -53 4 -3 12 -30
19 -60 13 -59 19 -84 22 -87 12 -15 18 -386 8 -443 -5 -25 -10 -65 -12 -90 -5
-69 -18 -130 -26 -130 -9 0 -23 -39 -21 -57 1 -7 -7 -31 -18 -55 -10 -24 -28
-70 -40 -103 -11 -33 -32 -82 -46 -109 -14 -27 -25 -62 -25 -78 0 -15 -4 -28
-10 -28 -5 0 -7 8 -3 18 6 15 4 15 -15 -2 -12 -10 -29 -41 -38 -68 -11 -33
-20 -48 -30 -44 -7 3 -16 -3 -19 -14 -3 -10 -31 -46 -61 -81 -31 -34 -61 -75
-66 -91 -8 -23 -13 -26 -24 -17 -10 8 -14 8 -14 0 0 -13 -26 -40 -61 -63 -14
-9 -32 -30 -38 -47 -8 -17 -18 -28 -26 -25 -8 4 -16 -6 -20 -25 -3 -16 -14
-36 -23 -43 -17 -14 -17 -15 3 35 8 19 -2 22 -25 7 -10 -7 -11 -10 -2 -10 9 0
8 -6 -4 -24 -8 -14 -21 -23 -28 -20 -7 3 -21 -4 -31 -16 -10 -11 -25 -20 -33
-20 -13 0 -12 -3 2 -19 17 -19 17 -20 -4 -31 -17 -9 -24 -9 -29 -1 -8 13 -61
-27 -61 -46 0 -7 -23 -24 -50 -39 -28 -15 -62 -42 -76 -61 -14 -18 -31 -33
-38 -33 -7 0 -23 -11 -36 -25 -16 -17 -30 -23 -45 -19 -15 4 -32 -5 -62 -33
-22 -21 -48 -43 -59 -50 -10 -6 -14 -12 -8 -12 6 -1 26 10 45 24 19 13 45 30
59 36 42 18 64 32 141 84 41 28 99 65 129 82 30 18 80 56 111 85 83 78 179
158 189 158 6 0 10 5 10 11 0 7 10 22 23 34 106 104 327 364 327 386 0 9 8 27
18 40 10 13 29 49 41 79 13 30 30 64 37 75 8 11 14 26 14 33 0 8 13 33 28 56
31 47 49 87 56 131 3 17 11 64 20 105 29 150 33 198 32 356 -1 136 -4 165 -18
180 -10 12 -14 29 -11 46 9 48 -26 175 -74 266 -25 48 -50 89 -54 92 -5 3 -23
26 -41 51 -18 25 -50 66 -70 90 -231 273 -318 395 -341 477 -6 23 -15 42 -19
42 -4 0 -8 12 -8 28 0 37 -15 60 -24 37z"/>
<path  stroke-width="50" d="M3712 5541 c7 -11 16 -17 20 -15 5 3 2 12 -6 20 -21 20 -28 17 -14
-5z"/>
<path  stroke-width="50" d="M3322 5520 c15 -24 28 -26 28 -4 0 8 -4 12 -10 9 -5 -3 -10 -1 -10 4
0 6 -5 11 -10 11 -6 0 -5 -8 2 -20z"/>
<path  stroke-width="50" d="M3620 5150 c0 -14 12 -43 27 -65 15 -22 22 -40 16 -42 -8 -3 -7 -16
2 -41 14 -42 37 -131 38 -149 0 -7 4 -10 8 -7 4 2 10 0 14 -6 3 -6 0 -13 -9
-16 -11 -4 -12 -11 -4 -35 5 -16 8 -35 5 -43 -3 -7 1 -26 9 -41 8 -16 13 -33
11 -39 -2 -6 4 -22 14 -35 25 -31 24 -53 0 -23 -24 27 -31 28 -31 1 0 -11 4
-18 9 -15 13 8 23 -24 13 -38 -5 -6 -9 -25 -9 -42 0 -25 4 -30 19 -26 19 5 22
-5 12 -32 -3 -9 -11 -13 -16 -10 -7 5 -8 -7 -4 -32 7 -48 7 -36 3 -167 -3 -86
-7 -110 -20 -120 -15 -11 -19 -30 -16 -77 0 -8 -2 -26 -6 -40 -6 -23 -5 -24 8
-7 8 10 15 35 15 55 0 20 5 38 11 40 6 2 13 18 15 35 39 254 39 261 28 407 -6
78 -9 146 -6 151 3 5 1 9 -4 9 -5 0 -12 17 -16 38 -24 145 -79 397 -88 409 -6
7 -15 10 -20 7 -6 -4 -14 0 -19 7 -6 10 -9 7 -9 -11z"/>
<path  stroke-width="50" d="M8881 5028 c7 -16 16 -28 21 -28 13 0 10 9 -13 33 l-21 22 13 -27z"/>
<path  stroke-width="50" d="M8339 5027 c7 -7 14 -8 21 -1 6 6 2 10 -12 11 -16 2 -18 -1 -9 -10z"/>
<path  stroke-width="50" d="M6720 5019 c0 -5 5 -9 12 -9 6 0 8 -3 5 -6 -3 -4 3 -18 13 -32 11
-13 20 -29 20 -34 0 -9 49 -76 76 -105 7 -7 15 -31 19 -53 4 -22 10 -40 15
-40 27 0 45 -225 26 -325 -9 -46 -49 -145 -77 -191 -16 -26 -17 -33 -5 -37 31
-12 86 77 103 167 2 10 11 34 20 53 11 23 16 63 17 121 0 98 -6 132 -37 200
-12 26 -22 49 -22 52 -4 24 -18 50 -26 50 -6 0 -8 4 -5 9 3 4 -1 16 -8 27 -8
10 -11 25 -8 33 3 9 1 12 -6 7 -7 -4 -12 -1 -12 9 0 11 -5 15 -16 11 -8 -3
-12 -2 -9 4 7 11 -23 43 -48 53 -9 3 -14 13 -11 20 3 9 -3 16 -15 20 -12 3
-21 1 -21 -4z"/>
<path  stroke-width="50" d="M8730 4752 c0 -15 28 -23 36 -9 4 7 4 9 -1 5 -4 -4 -14 -3 -22 3 -8
7 -13 8 -13 1z"/>
<path  stroke-width="50" d="M7749 4696 c-53 -23 -138 -114 -121 -130 3 -3 0 -6 -6 -6 -7 0 -12
-7 -12 -15 0 -8 -5 -15 -11 -15 -6 0 -9 -6 -6 -14 3 -8 0 -17 -8 -20 -8 -3
-18 -20 -24 -38 -5 -18 -17 -53 -26 -77 -9 -24 -18 -63 -21 -85 -15 -126 -16
-157 -4 -171 11 -13 10 -14 -5 -8 -14 5 -17 3 -12 -10 3 -9 1 -30 -4 -47 -8
-23 -8 -34 1 -45 7 -9 8 -15 2 -15 -18 0 -21 -27 -6 -56 14 -27 14 -27 -5 -10
-12 11 -21 14 -26 7 -3 -6 -1 -11 5 -11 6 0 8 -5 5 -10 -4 -6 -1 -17 5 -25 10
-12 9 -15 -5 -15 -13 0 -15 -3 -6 -13 6 -8 8 -17 4 -21 -4 -4 -6 -22 -5 -41 2
-23 -1 -34 -9 -33 -7 2 -13 -7 -13 -19 0 -13 4 -23 9 -22 6 1 9 5 7 11 -1 5 4
16 13 24 8 9 15 22 15 30 0 9 5 25 12 37 7 12 14 51 15 87 2 36 10 90 17 120
8 30 13 71 11 90 -1 19 3 49 10 65 7 17 16 55 19 86 3 31 12 69 21 85 10 20
11 31 3 41 -6 8 -7 13 -1 13 6 0 23 30 39 68 29 66 114 172 139 172 7 0 18 6
24 14 18 21 -8 36 -40 22z"/>
<path  stroke-width="50" d="M8558 4438 c-8 -7 -30 -35 -48 -63 -53 -79 -96 -128 -230 -261 -183
-182 -213 -210 -233 -217 -9 -4 -22 -18 -27 -31 -5 -14 -24 -32 -42 -39 -35
-15 -67 -45 -66 -62 1 -8 -32 -32 -69 -51 -7 -3 -13 -11 -13 -18 0 -6 -16 -24
-35 -39 -19 -15 -35 -33 -35 -39 0 -6 -16 -30 -35 -54 -19 -23 -35 -49 -35
-58 0 -9 -7 -16 -15 -16 -8 0 -15 -7 -15 -16 0 -8 -11 -30 -24 -47 -25 -32
-69 -154 -82 -224 -4 -21 -10 -43 -15 -49 -10 -13 -7 -274 4 -274 4 0 7 -11 7
-25 0 -28 24 -102 51 -159 11 -22 19 -45 19 -51 0 -19 42 -90 61 -103 11 -7
19 -19 18 -25 0 -9 -2 -9 -6 1 -2 6 -8 12 -13 12 -14 0 2 -43 29 -80 14 -19
26 -42 27 -50 0 -19 61 -147 85 -181 10 -14 15 -30 11 -34 -4 -5 -2 -5 5 -1
15 8 27 -10 12 -20 -6 -3 -7 -9 -2 -13 12 -8 37 -64 35 -77 -1 -5 11 -23 27
-38 16 -16 27 -34 25 -40 -3 -7 9 -22 26 -34 16 -13 30 -27 30 -33 0 -6 -12
-1 -27 10 -30 24 -38 22 -28 -10 5 -15 9 -18 15 -9 6 9 11 7 19 -8 6 -12 10
-25 9 -29 -1 -4 2 -25 6 -45 7 -32 11 -36 26 -28 9 5 20 6 24 3 10 -10 7 -43
-4 -43 -17 0 -11 -21 14 -54 14 -19 26 -53 31 -86 4 -30 13 -62 20 -70 11 -13
23 -65 28 -125 1 -12 -3 -19 -11 -17 -10 2 -13 -13 -11 -60 1 -35 -2 -76 -5
-93 l-7 -30 15 25 c8 14 15 44 16 67 0 23 5 53 11 65 8 18 6 53 -5 134 -22
160 -39 221 -80 299 -20 37 -36 74 -36 82 0 8 -9 31 -19 51 -11 20 -32 62 -47
92 -14 30 -32 62 -38 70 -7 8 -22 36 -34 61 -66 146 -111 249 -123 284 -7 22
-21 48 -31 58 -10 10 -18 22 -18 27 0 5 -13 38 -30 72 -16 34 -30 66 -30 72 0
6 -7 24 -15 39 -8 16 -17 59 -19 95 -2 37 -9 80 -15 95 -40 103 23 382 118
522 12 17 21 39 21 50 0 40 290 335 495 503 94 77 174 163 269 287 33 44 59
80 56 80 -3 0 5 16 18 36 12 20 22 39 22 43 0 10 -15 7 -32 -6z"/>
<path  stroke-width="50" d="M6423 4402 c-5 -4 -16 -25 -23 -47 -15 -47 -99 -164 -117 -165 -7 0
-13 -5 -13 -11 0 -6 -7 -8 -15 -5 -9 3 -18 -1 -21 -9 -4 -8 -10 -12 -16 -9 -5
3 -28 -1 -51 -10 -23 -8 -60 -17 -82 -20 -22 -3 -65 -10 -95 -17 -30 -6 -73
-13 -95 -14 -22 -1 -60 -7 -84 -13 -24 -6 -49 -8 -56 -6 -7 3 -16 1 -20 -5 -3
-6 -11 -11 -16 -11 -6 0 -8 3 -6 8 6 8 -89 7 -139 -3 -19 -3 -34 -10 -34 -15
0 -6 -5 -10 -12 -10 -9 0 -9 3 0 12 7 7 12 19 12 27 -1 14 -2 14 -10 -1 -6
-10 -18 -14 -30 -11 -14 4 -20 0 -20 -11 0 -10 -5 -14 -10 -11 -6 4 -8 11 -5
16 4 5 2 9 -4 9 -5 0 -13 -5 -17 -11 -3 -6 -17 -9 -30 -6 -13 2 -25 1 -26 -3
-5 -13 -48 -22 -48 -11 0 6 -7 11 -15 11 -8 0 -15 -4 -15 -10 0 -5 -7 -10 -16
-10 -8 0 -12 -5 -9 -10 5 -8 11 -8 19 -1 7 6 15 8 19 5 7 -7 140 -7 187 1 19
3 85 8 145 10 227 11 272 14 369 29 54 8 102 19 105 24 3 5 27 12 54 16 26 4
47 11 47 17 0 5 7 9 15 9 9 0 21 4 28 10 7 5 37 29 67 53 44 34 60 55 79 102
33 84 35 127 4 107z"/>
<path  stroke-width="50" d="M4545 4363 c-71 -30 -194 -141 -195 -177 0 -5 -11 -24 -25 -42 -14
-18 -25 -39 -25 -47 0 -9 -5 -17 -12 -19 -6 -2 -12 -13 -13 -24 0 -12 -11 -33
-23 -49 -12 -15 -19 -32 -16 -37 3 -5 -3 -18 -14 -28 -26 -25 -59 -79 -67
-112 -4 -16 -11 -28 -16 -28 -5 0 -9 -5 -9 -11 0 -7 -15 -30 -33 -53 -18 -23
-44 -62 -57 -89 -14 -26 -35 -59 -47 -74 -21 -24 -27 -37 -25 -54 1 -4 -16
-25 -37 -48 -21 -22 -36 -43 -33 -45 2 -3 -4 -14 -14 -25 -11 -11 -28 -37 -39
-58 -11 -21 -28 -44 -37 -51 -10 -7 -18 -20 -18 -27 0 -8 -13 -27 -30 -42 -16
-14 -30 -34 -30 -44 0 -10 -4 -21 -10 -24 -5 -3 -10 0 -10 7 0 7 -8 1 -18 -13
-9 -15 -32 -39 -49 -54 -18 -15 -33 -36 -33 -48 0 -15 -3 -18 -10 -11 -12 12
-80 -44 -80 -65 0 -8 -6 -11 -15 -7 -11 4 -15 -1 -15 -19 0 -13 -5 -27 -11
-31 -9 -5 -10 1 -5 20 5 21 3 27 -6 23 -7 -2 -12 -9 -11 -15 2 -6 -13 -19 -33
-28 -25 -12 -32 -20 -25 -27 17 -17 13 -27 -9 -27 -11 0 -20 6 -20 13 0 6 -11
1 -23 -13 -12 -14 -39 -33 -60 -42 -20 -10 -37 -21 -37 -26 0 -15 -66 -40 -93
-35 -19 4 -29 0 -33 -11 -3 -9 -14 -16 -24 -16 -11 0 -22 -4 -25 -10 -9 -15
27 -11 48 5 11 7 25 11 33 8 8 -3 42 8 76 25 35 16 80 35 101 42 21 6 58 28
82 48 24 21 59 48 78 62 45 33 284 263 283 272 -1 3 8 17 20 30 12 13 38 48
58 80 20 31 48 64 62 73 14 9 31 29 37 43 7 15 38 66 70 114 31 48 57 89 57
92 0 3 21 35 46 71 29 41 44 72 40 82 -4 9 1 21 12 29 16 11 61 94 141 264 14
30 31 59 37 65 6 5 15 17 20 26 19 34 110 131 146 154 21 14 61 31 88 37 28 6
49 16 47 22 -6 18 -69 17 -112 -1z"/>
<path  stroke-width="50" d="M214 4012 c-22 -15 -76 -142 -88 -207 -3 -14 -12 -57 -22 -96 -15
-63 -16 -87 -6 -213 7 -77 12 -155 12 -173 0 -17 4 -34 10 -38 5 -3 10 -30 10
-59 0 -28 5 -57 12 -64 7 -7 11 -30 9 -53 -1 -22 2 -46 7 -52 5 -7 12 -29 16
-49 4 -20 13 -50 21 -65 8 -15 15 -34 15 -41 0 -7 5 -23 12 -35 7 -12 12 -26
13 -32 3 -38 32 -118 78 -215 12 -25 22 -47 23 -50 3 -15 17 -49 31 -75 48
-89 67 -132 70 -154 1 -13 6 -27 11 -30 5 -3 15 -24 22 -46 7 -22 21 -52 31
-67 11 -14 19 -30 19 -36 0 -5 6 -15 14 -21 7 -6 16 -26 20 -43 3 -17 13 -40
22 -49 9 -10 20 -37 25 -60 6 -23 21 -56 36 -73 15 -19 21 -32 14 -34 -8 -3
-8 -8 -3 -15 11 -14 65 -166 65 -184 0 -7 3 -12 6 -11 18 2 24 -3 13 -10 -10
-7 -10 -15 -2 -36 5 -15 10 -40 10 -55 0 -16 7 -34 15 -41 9 -7 14 -20 13 -29
-2 -9 7 -30 20 -45 30 -39 27 -59 -3 -21 l-25 30 0 -28 c0 -16 5 -26 12 -25
10 2 12 -12 10 -54 -4 -53 -3 -56 17 -51 21 5 26 -3 15 -31 -3 -9 -10 -13 -16
-10 -10 7 -6 -40 7 -69 4 -10 3 -40 -2 -67 -6 -28 -6 -55 -1 -64 12 -21 -5
-132 -19 -129 -14 3 -27 -42 -24 -83 1 -18 -2 -35 -8 -39 -13 -8 -14 -25 -2
-25 10 0 21 32 26 74 1 16 8 32 14 36 11 6 36 124 45 205 2 17 6 57 10 90 6
45 4 72 -9 108 -9 27 -15 61 -14 75 3 40 -26 175 -49 232 -6 14 -20 59 -32
100 -12 41 -29 100 -39 130 -10 30 -24 75 -32 100 -14 49 -25 61 -46 53 -7 -3
-13 0 -13 7 0 6 5 8 11 4 17 -10 3 28 -52 145 -28 57 -49 111 -48 120 1 9 0
19 -1 24 -1 4 -3 10 -4 15 -1 4 -10 23 -21 42 -31 56 -95 189 -95 197 0 3 -14
35 -30 70 -17 35 -44 105 -61 156 -16 51 -38 99 -47 107 -10 8 -18 27 -20 42
-2 26 -38 170 -49 198 -30 72 -55 252 -54 385 1 186 19 307 58 394 9 20 17 41
18 46 0 6 6 23 13 38 17 39 13 47 -14 29z"/>
<path  stroke-width="50" d="M3660 3920 c0 -11 4 -20 8 -20 4 0 8 9 8 20 0 11 -4 20 -8 20 -4 0
-8 -9 -8 -20z"/>
<path  stroke-width="50" d="M9690 3800 c-13 -11 -31 -20 -41 -20 -10 0 -25 -9 -33 -21 -8 -12
-19 -18 -25 -15 -5 4 -17 -7 -26 -24 -8 -16 -20 -30 -25 -30 -6 0 -3 11 6 25
16 24 15 25 -4 25 -13 0 -19 -6 -18 -17 1 -12 -7 -19 -24 -21 -43 -5 -68 -22
-63 -43 4 -14 0 -19 -16 -19 -11 0 -21 5 -21 10 0 12 -39 -6 -55 -25 -5 -7
-31 -20 -57 -30 -26 -10 -55 -26 -64 -36 -9 -11 -21 -19 -26 -19 -6 0 -21 -9
-36 -20 -16 -13 -29 -17 -35 -11 -13 13 -37 3 -64 -26 -12 -13 -29 -23 -36
-23 -8 0 -17 -7 -20 -15 -5 -12 -2 -12 21 -2 15 6 32 18 38 25 6 8 25 16 43
18 17 2 51 15 74 28 23 13 78 36 122 51 73 24 142 58 155 76 3 3 16 10 30 14
32 9 185 90 221 117 15 12 25 27 22 34 -7 19 -16 18 -43 -6z"/>
<path  stroke-width="50" d="M610 3764 c0 -19 4 -33 8 -30 8 5 4 66 -4 66 -2 0 -4 -16 -4 -36z"/>
<path  stroke-width="50" d="M8931 3426 c-7 -8 -8 -17 -3 -19 4 -3 13 3 20 14 14 22 0 26 -17 5z"/>
<path  stroke-width="50" d="M2391 2769 c-59 -9 -175 -50 -196 -70 -5 -5 -15 -9 -23 -9 -27 0
-178 -116 -245 -187 -17 -18 -36 -33 -44 -33 -7 0 -19 -13 -28 -30 -8 -16 -28
-36 -44 -44 -15 -8 -36 -31 -45 -51 -9 -19 -23 -35 -30 -35 -7 0 -23 -11 -36
-25 -13 -14 -20 -25 -16 -25 4 0 -5 -13 -21 -29 -15 -15 -37 -46 -48 -67 -11
-22 -26 -45 -32 -52 -7 -7 -13 -22 -13 -32 0 -10 -7 -20 -15 -24 -8 -3 -15
-12 -15 -20 0 -9 -8 -30 -18 -48 -27 -49 -71 -269 -75 -380 -3 -58 -10 -104
-17 -113 -10 -12 -10 -15 0 -15 8 0 10 -9 5 -27 -4 -16 -6 -62 -5 -103 1 -41
1 -79 1 -85 -1 -5 -3 -39 -5 -75 -2 -36 -8 -76 -13 -90 -5 -14 -8 -44 -5 -67
2 -26 0 -43 -6 -43 -6 0 -13 -18 -17 -40 -4 -23 -13 -54 -21 -70 -8 -16 -17
-51 -21 -79 -4 -39 -9 -49 -18 -41 -11 9 -22 -7 -24 -36 0 -3 -11 -19 -25 -35
-15 -17 -26 -39 -26 -50 0 -11 -7 -22 -15 -25 -8 -4 -15 -18 -15 -34 0 -15 -7
-33 -15 -40 -13 -11 -14 -8 -8 20 5 26 3 32 -8 28 -8 -3 -14 -13 -14 -24 0
-23 -14 -46 -24 -40 -4 3 -19 -8 -34 -24 -24 -25 -25 -29 -9 -35 16 -6 16 -8
-3 -21 -11 -8 -26 -12 -34 -9 -16 6 -51 -22 -51 -41 0 -6 -25 -26 -55 -43 -30
-17 -55 -35 -55 -41 0 -15 -113 -86 -117 -73 -6 16 -48 -3 -80 -35 -13 -13
-27 -21 -32 -18 -5 3 -15 -1 -22 -10 -11 -13 -9 -14 17 -8 16 4 38 15 50 25
11 11 31 19 44 19 19 0 68 26 190 101 8 5 35 20 60 33 41 22 156 136 229 230
35 44 161 298 161 324 0 5 9 37 21 72 11 35 22 99 25 144 2 45 6 126 9 180 3
54 9 104 14 110 5 6 11 72 13 146 6 163 29 286 76 400 19 47 35 98 36 114 1
18 13 41 31 61 17 17 61 70 99 119 79 99 218 248 257 274 15 9 61 41 103 70
43 28 80 52 83 52 4 0 14 6 22 14 9 8 51 29 94 46 63 25 92 31 162 32 84 1 97
6 73 26 -21 16 -70 20 -137 11z"/>
<path  stroke-width="50" d="M3010 2720 c-13 -8 -12 -10 3 -10 9 0 17 5 17 10 0 12 -1 12 -20 0z"/>
<path  stroke-width="50" d="M9492 2578 c-15 -15 -15 -28 0 -28 6 0 8 3 5 7 -4 3 1 12 11 19 9 7
12 14 7 14 -6 0 -16 -5 -23 -12z"/>
<path  stroke-width="50" d="M9430 2519 c0 -5 5 -7 10 -4 6 3 10 8 10 11 0 2 -4 4 -10 4 -5 0 -10
-5 -10 -11z"/>
<path  stroke-width="50" d="M8036 1184 c-8 -20 -8 -24 2 -24 4 0 8 9 9 20 2 24 -3 26 -11 4z"/>
<path  stroke-width="50" d="M696 734 c-8 -21 -8 -34 2 -34 4 0 8 11 8 25 2 29 -1 32 -10 9z"/>
<path  stroke-width="50" d="M572 159 c-23 -9 -22 -29 0 -29 6 0 8 3 5 7 -4 3 1 12 11 19 20 16
16 16 -16 3z"/>
</g>
</svg>
